<?xml version="1.0" encoding="UTF-8"?>
<svg width="198px" height="197px" viewBox="0 0 198 197" version="1.1" xmlns="http://www.w3.org/2000/svg" xmlns:xlink="http://www.w3.org/1999/xlink">
    <title>virus_blue</title>
    <g id="Page-1" stroke="none" stroke-width="1" fill="none" fill-rule="evenodd">
        <g id="02_Desktop_Longpage" transform="translate(-621.000000, -194.000000)" fill-rule="nonzero">
            <g id="virus_blue" transform="translate(621.000000, 194.000000)">
                <g id="Group" transform="translate(29.588933, 28.810277)">
                    <circle id="Oval" fill="#008CFF" cx="69.3743676" cy="69.6975099" r="69.3159684"></circle>
                    <path d="M138.690336,69.6975099 C138.690336,107.980138 107.656996,139.013478 69.3743676,139.013478 C56.7017391,139.013478 44.8233399,135.614644 34.599585,129.677391 C35.8220751,129.743577 37.0562451,129.774723 38.2982016,129.774723 C76.58083,129.774723 107.618063,98.7413834 107.618063,60.4587549 C107.618063,34.8487549 93.7307312,12.485751 73.0729842,0.478873518 C109.638676,2.40215415 138.690336,32.6568379 138.690336,69.6975099 Z" id="Path" fill="#0074D3"></path>
                    <ellipse id="Oval" fill="#43BCFF" transform="translate(34.607650, 57.587204) rotate(-83.909725) translate(-34.607650, -57.587204) " cx="34.6076503" cy="57.5872035" rx="21.3633768" ry="13.2611011"></ellipse>
                </g>
                <g id="Group" fill="#FFA91C">
                    <g transform="translate(88.377470, 0.000000)">
                        <rect id="Rectangle" x="8.50681818" y="4.21252964" width="4.15802372" height="24.9753953"></rect>
                        <ellipse id="Oval" cx="10.58583" cy="4.21252964" rx="10.3133004" ry="4.15802372"></ellipse>
                    </g>
                    <g transform="translate(56.841897, 4.282609)">
                        <polygon id="Rectangle" transform="translate(14.144378, 17.350160) rotate(-19.998771) translate(-14.144378, -17.350160) " points="12.0653665 4.86246187 16.2233904 4.86246187 16.2233904 29.8378582 12.0653665 29.8378582"></polygon>
                        <path d="M19.5637352,2.0906917 C20.3501779,4.24756917 16.647668,7.57632411 11.2944071,9.52685771 C5.94114625,11.473498 0.965533597,11.306087 0.179090909,9.14531621 C-0.607351779,6.98843874 3.0951581,3.65579051 8.44841897,1.7091502 C13.8016798,-0.237490119 18.7772925,-0.0700790514 19.5637352,2.0906917 Z" id="Path"></path>
                    </g>
                    <g transform="translate(27.642292, 16.351779)">
                        <polygon id="Rectangle" transform="translate(18.735119, 19.484943) rotate(-40.002181) translate(-18.735119, -19.484943) " points="16.6542147 6.99757102 20.8160231 6.99757102 20.8160231 31.9723149 16.6542147 31.9723149"></polygon>
                        <ellipse id="Oval" transform="translate(10.710077, 9.923704) rotate(-40.002181) translate(-10.710077, -9.923704) " cx="10.7100771" cy="9.92370447" rx="10.3130314" ry="4.15791527"></ellipse>
                    </g>
                    <g transform="translate(8.175889, 40.100791)">
                        <polygon id="Rectangle" transform="translate(19.937891, 17.501262) rotate(-59.999272) translate(-19.937891, -17.501262) " points="17.858925 5.01383908 22.0168572 5.01383908 22.0168572 29.9886849 17.858925 29.9886849"></polygon>
                        <ellipse id="Oval" transform="translate(9.126325, 11.260014) rotate(-59.999272) translate(-9.126325, -11.260014) " cx="9.12632478" cy="11.2600139" rx="10.3130735" ry="4.15793224"></ellipse>
                    </g>
                    <g transform="translate(0.000000, 71.247036)">
                        <polygon id="Rectangle" transform="translate(18.398166, 13.053091) rotate(-80.002641) translate(-18.398166, -13.053091) " points="16.3191878 0.565592919 20.477145 0.565592919 20.477145 25.5405886 16.3191878 25.5405886"></polygon>
                        <ellipse id="Oval" transform="translate(6.101733, 10.882577) rotate(-80.002641) translate(-6.101733, -10.882577) " cx="6.10173317" cy="10.8825774" rx="10.3131354" ry="4.15795719"></ellipse>
                    </g>
                    <g transform="translate(0.000000, 103.950593)">
                        <rect id="Rectangle" transform="translate(18.398345, 8.765616) rotate(-10.008644) translate(-18.398345, -8.765616) " x="5.91041305" y="6.68656502" width="24.9758633" height="4.15810164"></rect>
                        <ellipse id="Oval" transform="translate(6.096652, 10.926944) rotate(-9.997359) translate(-6.096652, -10.926944) " cx="6.09665166" cy="10.9269437" rx="4.15795719" ry="10.3131354"></ellipse>
                    </g>
                    <g transform="translate(8.175889, 131.203557)">
                        <polygon id="Rectangle" transform="translate(19.954145, 8.209510) rotate(-30.005690) translate(-19.954145, -8.209510) " points="7.46609745 6.13043987 32.4421921 6.13043987 32.4421921 10.28858 7.46609745 10.28858"></polygon>
                        <ellipse id="Oval" transform="translate(9.127874, 14.440684) rotate(-30.000728) translate(-9.127874, -14.440684) " cx="9.12787431" cy="14.440684" rx="4.15793224" ry="10.3130735"></ellipse>
                    </g>
                    <g transform="translate(29.978261, 149.891304)">
                        <polygon id="Rectangle" transform="translate(16.401087, 11.276024) rotate(-50.005891) translate(-16.401087, -11.276024) " points="3.91356152 9.19509394 28.8886134 9.19509394 28.8886134 13.3569537 3.91356152 13.3569537"></polygon>
                        <path d="M0.474980237,14.2182609 C1.9505336,12.458498 6.68476285,14.0002372 11.0491304,17.6638142 C15.413498,21.323498 17.7533597,25.7190119 16.2778063,27.4787747 C14.802253,29.2385375 10.0680237,27.6967984 5.70365613,24.0332213 C1.33928854,20.3735375 -1.00057312,15.9780237 0.474980237,14.2182609 Z" id="Path"></path>
                    </g>
                    <g transform="translate(55.284585, 162.739130)">
                        <polygon id="Rectangle" transform="translate(15.691167, 12.642449) rotate(-69.988501) translate(-15.691167, -12.642449) " points="3.203788 10.5634897 28.1785464 10.5634897 28.1785464 14.7214074 3.203788 14.7214074"></polygon>
                        <ellipse id="Oval" transform="translate(11.430221, 24.369401) rotate(-70.001229) translate(-11.430221, -24.369401) " cx="11.4302215" cy="24.3694015" rx="4.1580239" ry="10.3133009"></ellipse>
                    </g>
                    <g transform="translate(88.377470, 167.800395)">
                        <rect id="Rectangle" x="8.50681818" y="0.0233596838" width="4.15802372" height="24.9753953"></rect>
                        <path d="M0.272529644,24.9987549 C0.272529644,22.7017194 4.88996047,20.8407312 10.58583,20.8407312 C16.2816996,20.8407312 20.8991304,22.7017194 20.8991304,24.9987549 C20.8991304,27.2957905 16.2816996,29.1567787 10.58583,29.1567787 C4.88996047,29.1567787 0.272529644,27.2957905 0.272529644,24.9987549 Z" id="Path"></path>
                    </g>
                    <g transform="translate(120.691700, 162.739130)">
                        <polygon id="Rectangle" transform="translate(6.248931, 12.646876) rotate(-19.998771) translate(-6.248931, -12.646876) " points="4.16991954 0.159177969 8.32794344 0.159177969 8.32794344 25.1345743 4.16991954 25.1345743"></polygon>
                        <path d="M0.829268775,27.9031423 C0.042826087,25.7462648 3.74533597,22.4136166 9.09859684,20.4669763 C14.4518577,18.520336 19.4274704,18.687747 20.213913,20.8485178 C21.0003557,23.0053953 17.2978458,26.3380435 11.944585,28.2846838 C6.59132411,30.2313241 1.61571146,30.0600198 0.829268775,27.9031423 Z" id="Path"></path>
                    </g>
                    <g transform="translate(141.715415, 149.891304)">
                        <polygon id="Rectangle" transform="translate(9.854854, 11.281345) rotate(-39.998498) translate(-9.854854, -11.281345) " points="7.7737907 -1.20698359 11.935918 -1.20698359 11.935918 23.7696735 7.7737907 23.7696735"></polygon>
                        <path d="M9.95901186,27.4787747 C8.4834585,25.7190119 10.8233202,21.323498 15.1876877,17.6638142 C19.5520553,14.0041304 24.2862846,12.458498 25.7618379,14.2182609 C27.2373913,15.9780237 24.8975296,20.3735375 20.5331621,24.0332213 C16.1687945,27.6967984 11.4345652,29.2385375 9.95901186,27.4787747 Z" id="Path"></path>
                    </g>
                    <g transform="translate(157.677866, 131.203557)">
                        <polygon id="Rectangle" transform="translate(12.123874, 8.208476) rotate(-59.999272) translate(-12.123874, -8.208476) " points="10.0449083 -4.27894681 14.2028406 -4.27894681 14.2028406 20.695899 10.0449083 20.695899"></polygon>
                        <ellipse id="Oval" transform="translate(22.936648, 14.452644) rotate(-59.999272) translate(-22.936648, -14.452644) " cx="22.9366477" cy="14.4526442" rx="10.3130735" ry="4.15793224"></ellipse>
                    </g>
                    <g transform="translate(166.632411, 103.950593)">
                        <polygon id="Rectangle" transform="translate(12.883619, 8.762432) rotate(-80.002641) translate(-12.883619, -8.762432) " points="10.8046408 -3.72506552 14.9625979 -3.72506552 14.9625979 21.2499301 10.8046408 21.2499301"></polygon>
                        <ellipse id="Oval" transform="translate(25.178600, 10.926902) rotate(-80.002641) translate(-25.178600, -10.926902) " cx="25.1785996" cy="10.9269017" rx="10.3131354" ry="4.15795719"></ellipse>
                    </g>
                    <g transform="translate(166.632411, 71.247036)">
                        <polygon id="Rectangle" transform="translate(12.896290, 13.066979) rotate(-10.008644) translate(-12.896290, -13.066979) " points="0.408357999 10.9879284 25.3842213 10.9879284 25.3842213 15.1460301 0.408357999 15.1460301"></polygon>
                        <ellipse id="Oval" transform="translate(25.186251, 10.892381) rotate(-9.997359) translate(-25.186251, -10.892381) " cx="25.1862507" cy="10.8923807" rx="4.15795719" ry="10.3131354"></ellipse>
                    </g>
                    <g transform="translate(157.677866, 40.100791)">
                        <polygon id="Rectangle" transform="translate(12.138465, 17.499823) rotate(-30.005690) translate(-12.138465, -17.499823) " points="-0.349582826 15.4207527 24.6265119 15.4207527 24.6265119 19.5788929 -0.349582826 19.5788929"></polygon>
                        <ellipse id="Oval" transform="translate(22.939864, 11.259726) rotate(-30.000728) translate(-22.939864, -11.259726) " cx="22.9398636" cy="11.2597258" rx="4.15793224" ry="10.3130735"></ellipse>
                    </g>
                    <g transform="translate(141.715415, 18.687747)">
                        <rect id="Rectangle" transform="translate(9.823919, 17.150013) rotate(-50.005891) translate(-9.823919, -17.150013) " x="-2.6636074" y="15.0690834" width="24.9750518" height="4.16185977"></rect>
                        <path d="M25.7618379,14.2143676 C24.2862846,15.9741304 19.5520553,14.4323913 15.1876877,10.7688142 C10.8233202,7.10913043 8.4834585,2.7136166 9.95901186,0.953853755 C11.4345652,-0.805909091 16.1687945,0.73583004 20.5331621,4.39940711 C24.8975296,8.06298419 27.2373913,12.458498 25.7618379,14.2143676 Z" id="Path"></path>
                    </g>
                    <g transform="translate(120.691700, 4.282609)">
                        <polygon id="Rectangle" transform="translate(6.250433, 17.358309) rotate(-69.988501) translate(-6.250433, -17.358309) " points="-6.23694645 15.2793504 18.7378119 15.2793504 18.7378119 19.4372681 -6.23694645 19.4372681"></polygon>
                        <path d="M20.213913,9.14531621 C19.4274704,11.3021937 14.4518577,11.473498 9.09859684,9.52685771 C3.74533597,7.58021739 0.042826087,4.24756917 0.829268775,2.0906917 C1.61571146,-0.0661857708 6.59132411,-0.237490119 11.944585,1.7091502 C17.2978458,3.65968379 21.0003557,6.98843874 20.213913,9.14531621 Z" id="Path"></path>
                    </g>
                </g>
                <g id="Group" fill="#008CFF">
                    <g transform="translate(88.377470, 0.000000)">
                        <rect id="Rectangle" x="8.50681818" y="4.21252964" width="4.15802372" height="24.9753953"></rect>
                        <ellipse id="Oval" cx="10.58583" cy="4.21252964" rx="10.3133004" ry="4.15802372"></ellipse>
                    </g>
                    <g transform="translate(56.841897, 4.282609)">
                        <polygon id="Rectangle" transform="translate(14.144378, 17.350160) rotate(-19.998771) translate(-14.144378, -17.350160) " points="12.0653665 4.86246187 16.2233904 4.86246187 16.2233904 29.8378582 12.0653665 29.8378582"></polygon>
                        <path d="M19.5637352,2.0906917 C20.3501779,4.24756917 16.647668,7.57632411 11.2944071,9.52685771 C5.94114625,11.473498 0.965533597,11.306087 0.179090909,9.14531621 C-0.607351779,6.98843874 3.0951581,3.65579051 8.44841897,1.7091502 C13.8016798,-0.237490119 18.7772925,-0.0700790514 19.5637352,2.0906917 Z" id="Path"></path>
                    </g>
                    <g transform="translate(27.642292, 16.351779)">
                        <polygon id="Rectangle" transform="translate(18.735119, 19.484943) rotate(-40.002181) translate(-18.735119, -19.484943) " points="16.6542147 6.99757102 20.8160231 6.99757102 20.8160231 31.9723149 16.6542147 31.9723149"></polygon>
                        <ellipse id="Oval" transform="translate(10.710077, 9.923704) rotate(-40.002181) translate(-10.710077, -9.923704) " cx="10.7100771" cy="9.92370447" rx="10.3130314" ry="4.15791527"></ellipse>
                    </g>
                    <g transform="translate(8.175889, 40.100791)">
                        <polygon id="Rectangle" transform="translate(19.937891, 17.501262) rotate(-59.999272) translate(-19.937891, -17.501262) " points="17.858925 5.01383908 22.0168572 5.01383908 22.0168572 29.9886849 17.858925 29.9886849"></polygon>
                        <ellipse id="Oval" transform="translate(9.126325, 11.260014) rotate(-59.999272) translate(-9.126325, -11.260014) " cx="9.12632478" cy="11.2600139" rx="10.3130735" ry="4.15793224"></ellipse>
                    </g>
                    <g transform="translate(0.000000, 71.247036)">
                        <polygon id="Rectangle" transform="translate(18.398166, 13.053091) rotate(-80.002641) translate(-18.398166, -13.053091) " points="16.3191878 0.565592919 20.477145 0.565592919 20.477145 25.5405886 16.3191878 25.5405886"></polygon>
                        <ellipse id="Oval" transform="translate(6.101733, 10.882577) rotate(-80.002641) translate(-6.101733, -10.882577) " cx="6.10173317" cy="10.8825774" rx="10.3131354" ry="4.15795719"></ellipse>
                    </g>
                    <g transform="translate(0.000000, 103.950593)">
                        <rect id="Rectangle" transform="translate(18.398345, 8.765616) rotate(-10.008644) translate(-18.398345, -8.765616) " x="5.91041305" y="6.68656502" width="24.9758633" height="4.15810164"></rect>
                        <ellipse id="Oval" transform="translate(6.096652, 10.926944) rotate(-9.997359) translate(-6.096652, -10.926944) " cx="6.09665166" cy="10.9269437" rx="4.15795719" ry="10.3131354"></ellipse>
                    </g>
                    <g transform="translate(8.175889, 131.203557)">
                        <polygon id="Rectangle" transform="translate(19.954145, 8.209510) rotate(-30.005690) translate(-19.954145, -8.209510) " points="7.46609745 6.13043987 32.4421921 6.13043987 32.4421921 10.28858 7.46609745 10.28858"></polygon>
                        <ellipse id="Oval" transform="translate(9.127874, 14.440684) rotate(-30.000728) translate(-9.127874, -14.440684) " cx="9.12787431" cy="14.440684" rx="4.15793224" ry="10.3130735"></ellipse>
                    </g>
                    <g transform="translate(29.978261, 149.891304)">
                        <polygon id="Rectangle" transform="translate(16.401087, 11.276024) rotate(-50.005891) translate(-16.401087, -11.276024) " points="3.91356152 9.19509394 28.8886134 9.19509394 28.8886134 13.3569537 3.91356152 13.3569537"></polygon>
                        <path d="M0.474980237,14.2182609 C1.9505336,12.458498 6.68476285,14.0002372 11.0491304,17.6638142 C15.413498,21.323498 17.7533597,25.7190119 16.2778063,27.4787747 C14.802253,29.2385375 10.0680237,27.6967984 5.70365613,24.0332213 C1.33928854,20.3735375 -1.00057312,15.9780237 0.474980237,14.2182609 Z" id="Path"></path>
                    </g>
                    <g transform="translate(55.284585, 162.739130)">
                        <polygon id="Rectangle" transform="translate(15.691167, 12.642449) rotate(-69.988501) translate(-15.691167, -12.642449) " points="3.203788 10.5634897 28.1785464 10.5634897 28.1785464 14.7214074 3.203788 14.7214074"></polygon>
                        <ellipse id="Oval" transform="translate(11.430221, 24.369401) rotate(-70.001229) translate(-11.430221, -24.369401) " cx="11.4302215" cy="24.3694015" rx="4.1580239" ry="10.3133009"></ellipse>
                    </g>
                    <g transform="translate(88.377470, 167.800395)">
                        <rect id="Rectangle" x="8.50681818" y="0.0233596838" width="4.15802372" height="24.9753953"></rect>
                        <path d="M0.272529644,24.9987549 C0.272529644,22.7017194 4.88996047,20.8407312 10.58583,20.8407312 C16.2816996,20.8407312 20.8991304,22.7017194 20.8991304,24.9987549 C20.8991304,27.2957905 16.2816996,29.1567787 10.58583,29.1567787 C4.88996047,29.1567787 0.272529644,27.2957905 0.272529644,24.9987549 Z" id="Path"></path>
                    </g>
                    <g transform="translate(120.691700, 162.739130)">
                        <polygon id="Rectangle" transform="translate(6.248931, 12.646876) rotate(-19.998771) translate(-6.248931, -12.646876) " points="4.16991954 0.159177969 8.32794344 0.159177969 8.32794344 25.1345743 4.16991954 25.1345743"></polygon>
                        <path d="M0.829268775,27.9031423 C0.042826087,25.7462648 3.74533597,22.4136166 9.09859684,20.4669763 C14.4518577,18.520336 19.4274704,18.687747 20.213913,20.8485178 C21.0003557,23.0053953 17.2978458,26.3380435 11.944585,28.2846838 C6.59132411,30.2313241 1.61571146,30.0600198 0.829268775,27.9031423 Z" id="Path"></path>
                    </g>
                    <g transform="translate(141.715415, 149.891304)">
                        <polygon id="Rectangle" transform="translate(9.854854, 11.281345) rotate(-39.998498) translate(-9.854854, -11.281345) " points="7.7737907 -1.20698359 11.935918 -1.20698359 11.935918 23.7696735 7.7737907 23.7696735"></polygon>
                        <path d="M9.95901186,27.4787747 C8.4834585,25.7190119 10.8233202,21.323498 15.1876877,17.6638142 C19.5520553,14.0041304 24.2862846,12.458498 25.7618379,14.2182609 C27.2373913,15.9780237 24.8975296,20.3735375 20.5331621,24.0332213 C16.1687945,27.6967984 11.4345652,29.2385375 9.95901186,27.4787747 Z" id="Path"></path>
                    </g>
                    <g transform="translate(157.677866, 131.203557)">
                        <polygon id="Rectangle" transform="translate(12.123874, 8.208476) rotate(-59.999272) translate(-12.123874, -8.208476) " points="10.0449083 -4.27894681 14.2028406 -4.27894681 14.2028406 20.695899 10.0449083 20.695899"></polygon>
                        <ellipse id="Oval" transform="translate(22.936648, 14.452644) rotate(-59.999272) translate(-22.936648, -14.452644) " cx="22.9366477" cy="14.4526442" rx="10.3130735" ry="4.15793224"></ellipse>
                    </g>
                    <g transform="translate(166.632411, 103.950593)">
                        <polygon id="Rectangle" transform="translate(12.883619, 8.762432) rotate(-80.002641) translate(-12.883619, -8.762432) " points="10.8046408 -3.72506552 14.9625979 -3.72506552 14.9625979 21.2499301 10.8046408 21.2499301"></polygon>
                        <ellipse id="Oval" transform="translate(25.178600, 10.926902) rotate(-80.002641) translate(-25.178600, -10.926902) " cx="25.1785996" cy="10.9269017" rx="10.3131354" ry="4.15795719"></ellipse>
                    </g>
                    <g transform="translate(166.632411, 71.247036)">
                        <polygon id="Rectangle" transform="translate(12.896290, 13.066979) rotate(-10.008644) translate(-12.896290, -13.066979) " points="0.408357999 10.9879284 25.3842213 10.9879284 25.3842213 15.1460301 0.408357999 15.1460301"></polygon>
                        <ellipse id="Oval" transform="translate(25.186251, 10.892381) rotate(-9.997359) translate(-25.186251, -10.892381) " cx="25.1862507" cy="10.8923807" rx="4.15795719" ry="10.3131354"></ellipse>
                    </g>
                    <g transform="translate(157.677866, 40.100791)">
                        <polygon id="Rectangle" transform="translate(12.138465, 17.499823) rotate(-30.005690) translate(-12.138465, -17.499823) " points="-0.349582826 15.4207527 24.6265119 15.4207527 24.6265119 19.5788929 -0.349582826 19.5788929"></polygon>
                        <ellipse id="Oval" transform="translate(22.939864, 11.259726) rotate(-30.000728) translate(-22.939864, -11.259726) " cx="22.9398636" cy="11.2597258" rx="4.15793224" ry="10.3130735"></ellipse>
                    </g>
                    <g transform="translate(141.715415, 18.687747)">
                        <rect id="Rectangle" transform="translate(9.823919, 17.150013) rotate(-50.005891) translate(-9.823919, -17.150013) " x="-2.6636074" y="15.0690834" width="24.9750518" height="4.16185977"></rect>
                        <path d="M25.7618379,14.2143676 C24.2862846,15.9741304 19.5520553,14.4323913 15.1876877,10.7688142 C10.8233202,7.10913043 8.4834585,2.7136166 9.95901186,0.953853755 C11.4345652,-0.805909091 16.1687945,0.73583004 20.5331621,4.39940711 C24.8975296,8.06298419 27.2373913,12.458498 25.7618379,14.2143676 Z" id="Path"></path>
                    </g>
                    <g transform="translate(120.691700, 4.282609)">
                        <polygon id="Rectangle" transform="translate(6.250433, 17.358309) rotate(-69.988501) translate(-6.250433, -17.358309) " points="-6.23694645 15.2793504 18.7378119 15.2793504 18.7378119 19.4372681 -6.23694645 19.4372681"></polygon>
                        <path d="M20.213913,9.14531621 C19.4274704,11.3021937 14.4518577,11.473498 9.09859684,9.52685771 C3.74533597,7.58021739 0.042826087,4.24756917 0.829268775,2.0906917 C1.61571146,-0.0661857708 6.59132411,-0.237490119 11.944585,1.7091502 C17.2978458,3.65968379 21.0003557,6.98843874 20.213913,9.14531621 Z" id="Path"></path>
                    </g>
                </g>
                <g id="Group" transform="translate(26.474308, 26.084980)">
                    <g>
                        <ellipse id="Oval" fill="#0066CC" transform="translate(39.699167, 15.631989) rotate(-30.000728) translate(-39.699167, -15.631989) " cx="39.6991675" cy="15.6319889" rx="12.1078364" ry="6.65736341"></ellipse>
                        <ellipse id="Oval" fill="#0066CC" transform="translate(15.695956, 39.634718) rotate(-59.999272) translate(-15.695956, -39.634718) " cx="15.6959555" cy="39.6347181" rx="12.1078364" ry="6.65736341"></ellipse>
                        <ellipse id="Oval" fill="#0066CC" cx="6.9144664" cy="72.4228063" rx="6.65750988" ry="12.1081028"></ellipse>
                        <path d="M9.64754941,94.7235178 C12.832253,92.8858893 18.1232213,96.0900593 21.4675494,101.879368 C24.8118775,107.668676 24.9403557,113.855099 21.7556522,115.692727 C18.5709486,117.530356 13.2799802,114.326186 9.93565217,108.536877 C6.59132411,102.747569 6.46284585,96.5650395 9.64754941,94.7235178 Z" id="Path" fill="#0066CC"></path>
                        <path d="M29.2190711,123.156146 C31.0566996,119.971443 37.2431225,120.099921 43.0324308,123.444249 C48.8217391,126.788577 52.0259091,132.079545 50.1882806,135.264249 C48.3506522,138.448953 42.1642292,138.320474 36.3749209,134.976146 C30.5817194,131.635711 27.3814427,126.34085 29.2190711,123.156146 Z" id="Path" fill="#0066CC"></path>
                        <ellipse id="Oval" fill="#025BA5" cx="72.4889921" cy="137.997332" rx="12.1081028" ry="6.65750988"></ellipse>
                        <path d="M94.7935968,135.264249 C92.9559684,132.079545 96.1601383,126.788577 101.949447,123.444249 C107.738755,120.099921 113.925178,119.971443 115.762806,123.156146 C117.600435,126.34085 114.396265,131.631818 108.606957,134.976146 C102.817648,138.320474 96.6312253,138.448953 94.7935968,135.264249 Z" id="Path" fill="#025BA5"></path>
                        <ellipse id="Oval" fill="#025BA5" transform="translate(129.272038, 105.212600) rotate(-59.999272) translate(-129.272038, -105.212600) " cx="129.272038" cy="105.2126" rx="12.1078364" ry="6.65736341"></ellipse>
                        <ellipse id="Oval" fill="#025BA5" cx="138.063518" cy="72.4228063" rx="6.65750988" ry="12.1081028"></ellipse>
                        <ellipse id="Oval" fill="#025BA5" transform="translate(129.271867, 39.629992) rotate(-30.000728) translate(-129.271867, -39.629992) " cx="129.271867" cy="39.6299917" rx="6.65736341" ry="12.1078364"></ellipse>
                        <ellipse id="Oval" fill="#025BA5" transform="translate(105.273670, 15.638101) rotate(-59.999272) translate(-105.273670, -15.638101) " cx="105.27367" cy="15.6381014" rx="6.65736341" ry="12.1078364"></ellipse>
                        <ellipse id="Oval" fill="#025BA5" cx="72.4889921" cy="6.84828063" rx="12.1081028" ry="6.65750988"></ellipse>
                    </g>
                    <path d="M72.4889921,28.7129447 C71.3404743,28.7129447 70.4099802,27.7824506 70.4099802,26.6339328 L70.4099802,6.84828063 C70.4099802,5.69976285 71.3404743,4.76926877 72.4889921,4.76926877 C73.6375099,4.76926877 74.568004,5.69976285 74.568004,6.84828063 L74.568004,26.6339328 C74.568004,27.7785573 73.6375099,28.7129447 72.4889921,28.7129447 Z" id="Path" fill="#025BA5"></path>
                    <path d="M49.596502,34.8448617 C48.8801383,34.8448617 48.1793478,34.4711067 47.793913,33.8053557 L37.901087,16.6710277 C37.3287747,15.6782411 37.6674901,14.4051383 38.6602767,13.8289328 C39.6530632,13.2566206 40.926166,13.5914427 41.5023715,14.5881225 L51.3951976,31.7224506 C51.9675099,32.7152372 51.6287945,33.9883399 50.6360079,34.5645455 C50.3089723,34.7553162 49.9507905,34.8448617 49.596502,34.8448617 Z" id="Path" fill="#0066CC"></path>
                    <path d="M32.8320356,51.6054348 C32.477747,51.6054348 32.1195652,51.5158893 31.7925296,51.3251186 L14.6582016,41.4322925 C13.6615217,40.8599802 13.3228063,39.5868775 13.8990119,38.5901976 C14.4713241,37.5935178 15.7444269,37.2548024 16.7411067,37.8310079 L33.8754348,47.723834 C34.8721146,48.2961462 35.21083,49.569249 34.6346245,50.5659289 C34.2491897,51.2355731 33.5522925,51.6054348 32.8320356,51.6054348 Z" id="Path" fill="#0066CC"></path>
                    <path d="M26.7001186,74.5018182 L6.9144664,74.5018182 C5.76594862,74.5018182 4.83545455,73.5713241 4.83545455,72.4228063 C4.83545455,71.2742885 5.76594862,70.3437945 6.9144664,70.3437945 L26.7001186,70.3437945 C27.8486364,70.3437945 28.7791304,71.2742885 28.7791304,72.4228063 C28.7791304,73.5713241 27.8486364,74.5018182 26.7001186,74.5018182 Z" id="Path" fill="#0066CC"></path>
                    <path d="M15.7016008,107.291028 C14.9852372,107.291028 14.2844466,106.917273 13.8990119,106.251522 C13.3266996,105.258735 13.665415,103.985632 14.6582016,103.409427 L31.7925296,93.5166008 C32.7853162,92.9403953 34.058419,93.2791107 34.6346245,94.2757905 C35.2069368,95.2685771 34.8682213,96.5416798 33.8754348,97.1178854 L16.7411067,107.010711 C16.4140711,107.197589 16.0558893,107.291028 15.7016008,107.291028 Z" id="Path" fill="#0066CC"></path>
                    <path d="M39.6997826,131.293103 C39.3454941,131.293103 38.9873123,131.203557 38.6602767,131.012787 C37.6635968,130.440474 37.3248814,129.167372 37.901087,128.170692 L47.793913,111.036364 C48.3662253,110.039684 49.6393281,109.700968 50.6360079,110.277174 C51.6326877,110.849486 51.9714032,112.122589 51.3951976,113.119269 L41.5023715,130.253597 C41.1169368,130.919348 40.4200395,131.293103 39.6997826,131.293103 Z" id="Path" fill="#0066CC"></path>
                    <path d="M72.4889921,140.076344 C71.3404743,140.076344 70.4099802,139.14585 70.4099802,137.997332 L70.4099802,118.21168 C70.4099802,117.063162 71.3404743,116.132668 72.4889921,116.132668 C73.6375099,116.132668 74.568004,117.063162 74.568004,118.21168 L74.568004,137.997332 C74.568004,139.14585 73.6375099,140.076344 72.4889921,140.076344 Z" id="Path" fill="#025BA5"></path>
                    <path d="M105.278202,131.293103 C104.561838,131.293103 103.861047,130.919348 103.475613,130.253597 L93.5827866,113.119269 C93.0104743,112.126482 93.3491897,110.853379 94.3419763,110.277174 C95.3347628,109.700968 96.6078656,110.043577 97.1840711,111.036364 L107.076897,128.170692 C107.649209,129.163478 107.310494,130.436581 106.317708,131.012787 C105.990672,131.199664 105.63249,131.293103 105.278202,131.293103 Z" id="Path" fill="#025BA5"></path>
                    <path d="M129.276383,107.291028 C128.922095,107.291028 128.563913,107.201482 128.236877,107.010711 L111.102549,97.1178854 C110.10587,96.5455731 109.767154,95.2724704 110.34336,94.2757905 C110.915672,93.2791107 112.188775,92.9403953 113.185455,93.5166008 L130.319783,103.409427 C131.316462,103.981739 131.655178,105.254842 131.078972,106.251522 C130.693538,106.917273 129.99664,107.291028 129.276383,107.291028 Z" id="Path" fill="#025BA5"></path>
                    <path d="M138.063518,74.5018182 L118.277866,74.5018182 C117.129348,74.5018182 116.198854,73.5713241 116.198854,72.4228063 C116.198854,71.2742885 117.129348,70.3437945 118.277866,70.3437945 L138.063518,70.3437945 C139.212036,70.3437945 140.14253,71.2742885 140.14253,72.4228063 C140.14253,73.5713241 139.212036,74.5018182 138.063518,74.5018182 Z" id="Path" fill="#025BA5"></path>
                    <path d="M112.145949,51.6054348 C111.429585,51.6054348 110.728794,51.2316798 110.34336,50.5659289 C109.771047,49.5731423 110.109763,48.3000395 111.102549,47.723834 L128.236877,37.8310079 C129.229664,37.2586957 130.502767,37.5974111 131.078972,38.5901976 C131.651285,39.5829842 131.312569,40.856087 130.319783,41.4322925 L113.185455,51.3251186 C112.858419,51.5158893 112.500237,51.6054348 112.145949,51.6054348 Z" id="Path" fill="#025BA5"></path>
                    <path d="M95.3853755,34.8448617 C95.031087,34.8448617 94.6729051,34.7553162 94.3458696,34.5645455 C93.3491897,33.9922332 93.0104743,32.7191304 93.5866798,31.7224506 L103.479506,14.5881225 C104.051818,13.5914427 105.328814,13.2527273 106.321601,13.8289328 C107.318281,14.4012451 107.656996,15.6743478 107.080791,16.6710277 L97.1879644,33.8053557 C96.8025296,34.475 96.1017391,34.8448617 95.3853755,34.8448617 Z" id="Path" fill="#025BA5"></path>
                </g>
                <circle id="Oval" fill="#0066CC" transform="translate(98.968955, 98.508916) rotate(-9.218364) translate(-98.968955, -98.508916) " cx="98.968955" cy="98.5089164" r="12.1082871"></circle>
                <g id="Group" transform="translate(56.452569, 51.780632)" fill="#0066CC">
                    <path d="M42.5107312,0.276422925 C35.654664,0.276422925 30.0950593,5.00675889 30.0950593,10.8427866 C30.0950593,16.6788142 35.654664,21.4091502 42.5107312,21.4091502 C49.3667984,21.4091502 54.9225099,16.6788142 54.9225099,10.8427866 C54.9225099,5.01065217 49.3667984,0.276422925 42.5107312,0.276422925 L42.5107312,0.276422925 Z" id="Path"></path>
                    <path d="M42.5107312,26.1628458 C41.3622134,26.1628458 40.4317194,25.2323518 40.4317194,24.083834 L40.4317194,10.8427866 C40.4317194,9.69426877 41.3622134,8.7637747 42.5107312,8.7637747 C43.659249,8.7637747 44.5897431,9.69426877 44.5897431,10.8427866 L44.5897431,24.083834 C44.5897431,25.2323518 43.659249,26.1628458 42.5107312,26.1628458 Z" id="Path"></path>
                    <path d="M2.28535573,23.5037352 C-1.14073123,29.4409881 0.175197628,36.6201976 5.22867589,39.5401581 C10.2821542,42.4562253 17.1576877,40.0073518 20.587668,34.0739921 C24.0137549,28.1367391 22.6978261,20.9575296 17.6443478,18.0414625 C12.5908696,15.1176087 5.71533597,17.5664822 2.28535573,23.5037352 L2.28535573,23.5037352 Z" id="Path"></path>
                    <path d="M22.90417,37.4845059 C22.5498814,37.4845059 22.1916996,37.3949605 21.864664,37.2041897 L10.3989526,30.5856126 C9.40227273,30.0133004 9.06355731,28.7401976 9.63976285,27.7435178 C10.2120751,26.7468379 11.4890711,26.4081225 12.4818577,26.9843281 L23.9475692,33.6029051 C24.944249,34.1752174 25.2829644,35.4483202 24.7067589,36.445 C24.3213241,37.1146443 23.6205336,37.4845059 22.90417,37.4845059 Z" id="Path"></path>
                    <path d="M2.28535573,69.9505731 C5.71144269,75.8878261 12.5908696,78.3366996 17.6443478,75.4167391 C22.6978261,72.5006719 24.0137549,65.3214625 20.587668,59.3842095 C17.161581,53.4469565 10.2860474,50.998083 5.23256917,53.9180435 C0.179090909,56.8341107 -1.14073123,64.0133202 2.28535573,69.9505731 L2.28535573,69.9505731 Z" id="Path"></path>
                    <path d="M11.4384585,66.7464032 C10.7220949,66.7464032 10.0213043,66.3726482 9.63586957,65.7068972 C9.06355731,64.7141107 9.40227273,63.4410079 10.3950593,62.8648024 L21.8607708,56.2462253 C22.8535573,55.6700198 24.1266601,56.0126285 24.7028656,57.005415 C25.2751779,57.9982016 24.9364625,59.2713043 23.9436759,59.8475099 L12.4779644,66.466087 C12.1509289,66.6568577 11.792747,66.7464032 11.4384585,66.7464032 Z" id="Path"></path>
                    <path d="M42.5107312,93.1739921 C49.3667984,93.1739921 54.9264032,88.4436561 54.9264032,82.6076285 C54.9264032,76.7716008 49.3667984,72.0412648 42.5107312,72.0412648 C35.654664,72.0412648 30.0989526,76.7716008 30.0989526,82.6076285 C30.0989526,88.4436561 35.654664,93.1739921 42.5107312,93.1739921 L42.5107312,93.1739921 Z" id="Path"></path>
                    <path d="M42.5107312,84.6866403 C41.3622134,84.6866403 40.4317194,83.7561462 40.4317194,82.6076285 L40.4317194,69.366581 C40.4317194,68.2180632 41.3622134,67.2875692 42.5107312,67.2875692 C43.659249,67.2875692 44.5897431,68.2180632 44.5897431,69.366581 L44.5897431,82.6076285 C44.5897431,83.7561462 43.659249,84.6866403 42.5107312,84.6866403 Z" id="Path"></path>
                    <path d="M82.7361067,69.9505731 C86.1621937,64.0133202 84.8462648,56.8341107 79.7927866,53.9141502 C74.7393083,50.998083 67.8637747,53.4469565 64.4337945,59.3803162 C61.0077075,65.3175692 62.3236364,72.4967787 67.3771146,75.4128458 C72.4344862,78.3328063 79.3100198,75.8878261 82.7361067,69.9505731 L82.7361067,69.9505731 Z" id="Path"></path>
                    <path d="M73.583004,66.7464032 C73.2287154,66.7464032 72.8705336,66.6568577 72.543498,66.466087 L61.0777866,59.8475099 C60.0811067,59.2751976 59.7423913,58.0020949 60.3185968,57.005415 C60.8909091,56.0087352 62.1640119,55.6700198 63.1606917,56.2462253 L74.6264032,62.8648024 C75.623083,63.4371146 75.9617984,64.7102174 75.3855929,65.7068972 C75.0001581,66.3726482 74.3032609,66.7464032 73.583004,66.7464032 Z" id="Path"></path>
                    <path d="M82.7361067,23.5037352 C79.3100198,17.5664822 72.4305929,15.1176087 67.3771146,18.0375692 C62.3236364,20.9536364 61.0077075,28.1328458 64.4337945,34.0700988 C67.8598814,40.0073518 74.735415,42.4562253 79.7888933,39.5362648 C84.8462648,36.6163043 86.166087,29.4409881 82.7361067,23.5037352 L82.7361067,23.5037352 Z" id="Path"></path>
                    <path d="M62.1211858,37.4845059 C61.4048221,37.4845059 60.7040316,37.110751 60.3185968,36.445 C59.7462846,35.4522134 60.085,34.1791107 61.0777866,33.6029051 L72.543498,26.9843281 C73.5362846,26.4081225 74.8093874,26.7468379 75.3855929,27.7435178 C75.9579051,28.7363043 75.6191897,30.0094071 74.6264032,30.5856126 L63.1606917,37.2041897 C62.8336561,37.3949605 62.4754743,37.4845059 62.1211858,37.4845059 Z" id="Path"></path>
                </g>
            </g>
        </g>
    </g>
</svg>