<?xml version="1.0" encoding="utf-8"?>
<!-- Generator: Adobe Illustrator 25.0.0, SVG Export Plug-In . SVG Version: 6.00 Build 0)  -->
<svg version="1.1" id="Layer_1" xmlns="http://www.w3.org/2000/svg" xmlns:xlink="http://www.w3.org/1999/xlink" x="0px" y="0px"
	 viewBox="0 0 504.41 509.11" style="enable-background:new 0 0 504.41 509.11;" xml:space="preserve">
<style type="text/css">
	.st0{fill:#FFA91C;}
	.st1{fill:#FF8B0F;}
	.st2{fill:#FFC05C;}
	.st3{fill:#FF7B1C;}
	.st4{fill:#FF6929;}
</style>
<g>
	<g>
		<g>
			<g>
				<g>
					<g>
						
							<ellipse transform="matrix(0.7071 -0.7071 0.7071 0.7071 -105.7521 252.7267)" class="st0" cx="252.19" cy="254.02" rx="178.04" ry="178.04"/>
					</g>
				</g>
			</g>
		</g>
		<g>
			<g>
				<g>
					<g>
						<path class="st1" d="M430.23,254.02c0,98.33-79.71,178.04-178.04,178.04c-32.55,0-63.06-8.73-89.32-23.98
							c3.14,0.17,6.31,0.25,9.5,0.25c98.33,0,178.05-79.71,178.05-178.04c0-65.78-35.67-123.22-88.73-154.06
							C355.61,81.17,430.23,158.88,430.23,254.02z"/>
					</g>
				</g>
			</g>
		</g>
		<g>
			<g>
				<g>
					<g>
						
							<ellipse transform="matrix(0.1061 -0.9944 0.9944 0.1061 -76.0718 361.2263)" class="st2" cx="162.87" cy="222.92" rx="54.87" ry="34.06"/>
					</g>
				</g>
			</g>
		</g>
	</g>
	<g>
		<g>
			<g>
				<g>
					<g>
						<g>
							<rect x="246.85" y="11.82" class="st0" width="10.68" height="64.15"/>
						</g>
					</g>
				</g>
			</g>
			<g>
				<g>
					<g>
						<g>
							<ellipse class="st0" cx="252.19" cy="11.82" rx="26.49" ry="10.68"/>
						</g>
					</g>
				</g>
			</g>
		</g>
		<g>
			<g>
				<g>
					<g>
						<g>
							
								<rect x="174.99" y="24.49" transform="matrix(0.9397 -0.342 0.342 0.9397 -8.4731 65.0827)" class="st0" width="10.68" height="64.15"/>
						</g>
					</g>
				</g>
			</g>
			<g>
				<g>
					<g>
						<g>
							<path class="st0" d="M194.25,17.37c2.02,5.54-7.49,14.09-21.24,19.1c-13.75,5-26.53,4.57-28.55-0.98
								c-2.02-5.54,7.49-14.1,21.24-19.1C179.45,11.39,192.23,11.82,194.25,17.37z"/>
						</g>
					</g>
				</g>
			</g>
		</g>
		<g>
			<g>
				<g>
					<g>
						<g>
							
								<rect x="111.79" y="60.98" transform="matrix(0.766 -0.6428 0.6428 0.766 -32.4124 97.0598)" class="st0" width="10.69" height="64.15"/>
						</g>
					</g>
				</g>
			</g>
			<g>
				<g>
					<g>
						<g>
							
								<ellipse transform="matrix(0.766 -0.6428 0.6428 0.766 -21.4422 78.0598)" class="st0" cx="96.51" cy="68.49" rx="26.49" ry="10.68"/>
						</g>
					</g>
				</g>
			</g>
		</g>
		<g>
			<g>
				<g>
					<g>
						<g>
							
								<rect x="64.88" y="116.88" transform="matrix(0.5 -0.866 0.866 0.5 -93.8896 135.2916)" class="st0" width="10.68" height="64.15"/>
						</g>
					</g>
				</g>
			</g>
			<g>
				<g>
					<g>
						<g>
							
								<ellipse transform="matrix(0.5 -0.866 0.866 0.5 -93.8896 103.2192)" class="st0" cx="42.45" cy="132.92" rx="26.49" ry="10.68"/>
						</g>
					</g>
				</g>
			</g>
		</g>
		<g>
			<g>
				<g>
					<g>
						<g>
							
								<rect x="39.92" y="185.45" transform="matrix(0.1736 -0.9848 0.9848 0.1736 -176.8206 224.3409)" class="st0" width="10.68" height="64.15"/>
						</g>
					</g>
				</g>
			</g>
			<g>
				<g>
					<g>
						<g>
							
								<ellipse transform="matrix(0.1736 -0.9848 0.9848 0.1736 -197.4386 188.6236)" class="st0" cx="13.68" cy="211.96" rx="26.49" ry="10.68"/>
						</g>
					</g>
				</g>
			</g>
		</g>
		<g>
			<g>
				<g>
					<g>
						<g>
							
								<rect x="13.19" y="285.16" transform="matrix(0.9848 -0.1738 0.1738 0.9848 -49.8138 12.2928)" class="st0" width="64.15" height="10.68"/>
						</g>
					</g>
				</g>
			</g>
			<g>
				<g>
					<g>
						<g>
							
								<ellipse transform="matrix(0.9848 -0.1736 0.1736 0.9848 -51.205 6.8731)" class="st0" cx="13.68" cy="296.07" rx="10.68" ry="26.49"/>
						</g>
					</g>
				</g>
			</g>
		</g>
		<g>
			<g>
				<g>
					<g>
						<g>
							
								<rect x="38.15" y="353.74" transform="matrix(0.866 -0.5001 0.5001 0.866 -170.1478 83.2336)" class="st0" width="64.15" height="10.68"/>
						</g>
					</g>
				</g>
			</g>
			<g>
				<g>
					<g>
						<g>
							
								<ellipse transform="matrix(0.866 -0.5 0.5 0.866 -181.8705 71.4785)" class="st0" cx="42.45" cy="375.11" rx="10.68" ry="26.49"/>
						</g>
					</g>
				</g>
			</g>
		</g>
		<g>
			<g>
				<g>
					<g>
						<g>
							
								<rect x="85.05" y="409.64" transform="matrix(0.6427 -0.7661 0.7661 0.6427 -276.0625 237.9868)" class="st0" width="64.15" height="10.69"/>
						</g>
					</g>
				</g>
			</g>
			<g>
				<g>
					<g>
						<g>
							<path class="st0" d="M76.22,422.52c3.79-4.52,15.95-0.56,27.16,8.85c11.21,9.4,17.22,20.69,13.43,25.21
								c-3.79,4.52-15.95,0.56-27.16-8.85C78.44,438.33,72.43,427.04,76.22,422.52z"/>
						</g>
					</g>
				</g>
			</g>
		</g>
		<g>
			<g>
				<g>
					<g>
						<g>
							
								<rect x="148.25" y="446.12" transform="matrix(0.3422 -0.9396 0.9396 0.3422 -305.5894 466.4194)" class="st0" width="64.15" height="10.68"/>
						</g>
					</g>
				</g>
			</g>
			<g>
				<g>
					<g>
						<g>
							
								<ellipse transform="matrix(0.342 -0.9397 0.9397 0.342 -341.1281 476.0296)" class="st0" cx="169.36" cy="481.61" rx="10.68" ry="26.49"/>
						</g>
					</g>
				</g>
			</g>
		</g>
		<g>
			<g>
				<g>
					<g>
						<g>
							<rect x="246.85" y="432.06" class="st0" width="10.68" height="64.15"/>
						</g>
					</g>
				</g>
			</g>
			<g>
				<g>
					<g>
						<g>
							<path class="st0" d="M225.7,496.21c0-5.9,11.86-10.68,26.49-10.68c14.63,0,26.49,4.78,26.49,10.68
								c0,5.9-11.86,10.68-26.49,10.68C237.56,506.89,225.7,502.11,225.7,496.21z"/>
						</g>
					</g>
				</g>
			</g>
		</g>
		<g>
			<g>
				<g>
					<g>
						<g>
							
								<rect x="318.72" y="419.39" transform="matrix(0.9397 -0.342 0.342 0.9397 -134.8732 138.0698)" class="st0" width="10.68" height="64.15"/>
						</g>
					</g>
				</g>
			</g>
			<g>
				<g>
					<g>
						<g>
							<path class="st0" d="M310.13,490.67c-2.02-5.54,7.49-14.1,21.24-19.1c13.75-5,26.53-4.57,28.55,0.98
								c2.02,5.54-7.49,14.1-21.24,19.1C324.93,496.65,312.15,496.21,310.13,490.67z"/>
						</g>
					</g>
				</g>
			</g>
		</g>
		<g>
			<g>
				<g>
					<g>
						<g>
							
								<rect x="381.91" y="382.9" transform="matrix(0.7661 -0.6428 0.6428 0.7661 -176.1402 345.9905)" class="st0" width="10.69" height="64.15"/>
						</g>
					</g>
				</g>
			</g>
			<g>
				<g>
					<g>
						<g>
							<path class="st0" d="M387.58,456.58c-3.79-4.52,2.22-15.81,13.43-25.21c11.21-9.4,23.37-13.37,27.16-8.85
								c3.79,4.52-2.22,15.81-13.43,25.21C403.53,457.14,391.37,461.1,387.58,456.58z"/>
						</g>
					</g>
				</g>
			</g>
		</g>
		<g>
			<g>
				<g>
					<g>
						<g>
							
								<rect x="428.82" y="327" transform="matrix(0.5 -0.866 0.866 0.5 -93.8928 555.5254)" class="st0" width="10.68" height="64.15"/>
						</g>
					</g>
				</g>
			</g>
			<g>
				<g>
					<g>
						<g>
							
								<ellipse transform="matrix(0.5 -0.866 0.866 0.5 -93.8897 587.6075)" class="st0" cx="461.94" cy="375.11" rx="26.49" ry="10.68"/>
						</g>
					</g>
				</g>
			</g>
		</g>
		<g>
			<g>
				<g>
					<g>
						<g>
							
								<rect x="453.78" y="258.43" transform="matrix(0.1736 -0.9848 0.9848 0.1736 93.3094 692.2086)" class="st0" width="10.68" height="64.15"/>
						</g>
					</g>
				</g>
			</g>
			<g>
				<g>
					<g>
						<g>
							
								<ellipse transform="matrix(0.1736 -0.9848 0.9848 0.1736 113.9215 727.9142)" class="st0" cx="490.71" cy="296.07" rx="26.49" ry="10.68"/>
						</g>
					</g>
				</g>
			</g>
		</g>
		<g>
			<g>
				<g>
					<g>
						<g>
							
								<rect x="427.04" y="212.19" transform="matrix(0.9848 -0.1738 0.1738 0.9848 -30.826 83.1292)" class="st0" width="64.15" height="10.68"/>
						</g>
					</g>
				</g>
			</g>
			<g>
				<g>
					<g>
						<g>
							
								<ellipse transform="matrix(0.9848 -0.1736 0.1736 0.9848 -29.3514 88.4294)" class="st0" cx="490.71" cy="211.96" rx="10.68" ry="26.49"/>
						</g>
					</g>
				</g>
			</g>
		</g>
		<g>
			<g>
				<g>
					<g>
						<g>
							
								<rect x="402.08" y="143.62" transform="matrix(0.866 -0.5001 0.5001 0.866 -16.3056 237.0715)" class="st0" width="64.15" height="10.68"/>
						</g>
					</g>
				</g>
			</g>
			<g>
				<g>
					<g>
						<g>
							
								<ellipse transform="matrix(0.866 -0.5 0.5 0.866 -4.5722 248.7769)" class="st0" cx="461.94" cy="132.92" rx="10.68" ry="26.49"/>
						</g>
					</g>
				</g>
			</g>
		</g>
		<g>
			<g>
				<g>
					<g>
						<g>
							
								<rect x="355.18" y="87.71" transform="matrix(0.6427 -0.7661 0.7661 0.6427 67.0602 329.9131)" class="st0" width="64.15" height="10.69"/>
						</g>
					</g>
				</g>
			</g>
			<g>
				<g>
					<g>
						<g>
							<path class="st0" d="M428.17,85.51c-3.79,4.52-15.95,0.56-27.16-8.85c-11.21-9.4-17.22-20.69-13.43-25.21
								c3.79-4.52,15.95-0.56,27.16,8.85C425.95,69.71,431.96,81,428.17,85.51z"/>
						</g>
					</g>
				</g>
			</g>
		</g>
		<g>
			<g>
				<g>
					<g>
						<g>
							
								<rect x="291.98" y="51.23" transform="matrix(0.3422 -0.9396 0.9396 0.3422 160.0156 341.7074)" class="st0" width="64.15" height="10.68"/>
						</g>
					</g>
				</g>
			</g>
			<g>
				<g>
					<g>
						<g>
							<path class="st0" d="M359.92,35.49c-2.02,5.54-14.8,5.98-28.55,0.98c-13.75-5-23.26-13.56-21.24-19.1
								c2.02-5.54,14.8-5.98,28.55-0.98C352.43,21.4,361.94,29.95,359.92,35.49z"/>
						</g>
					</g>
				</g>
			</g>
		</g>
	</g>
	<g>
		<g>
			<g>
				<g>
					<g>
						<g>
							<rect x="246.85" y="11.82" class="st0" width="10.68" height="64.15"/>
						</g>
					</g>
				</g>
			</g>
			<g>
				<g>
					<g>
						<g>
							<ellipse class="st0" cx="252.19" cy="11.82" rx="26.49" ry="10.68"/>
						</g>
					</g>
				</g>
			</g>
		</g>
		<g>
			<g>
				<g>
					<g>
						<g>
							
								<rect x="174.99" y="24.49" transform="matrix(0.9397 -0.342 0.342 0.9397 -8.4731 65.0827)" class="st0" width="10.68" height="64.15"/>
						</g>
					</g>
				</g>
			</g>
			<g>
				<g>
					<g>
						<g>
							<path class="st0" d="M194.25,17.37c2.02,5.54-7.49,14.09-21.24,19.1c-13.75,5-26.53,4.57-28.55-0.98
								c-2.02-5.54,7.49-14.1,21.24-19.1C179.45,11.39,192.23,11.82,194.25,17.37z"/>
						</g>
					</g>
				</g>
			</g>
		</g>
		<g>
			<g>
				<g>
					<g>
						<g>
							
								<rect x="111.79" y="60.98" transform="matrix(0.766 -0.6428 0.6428 0.766 -32.4124 97.0598)" class="st0" width="10.69" height="64.15"/>
						</g>
					</g>
				</g>
			</g>
			<g>
				<g>
					<g>
						<g>
							
								<ellipse transform="matrix(0.766 -0.6428 0.6428 0.766 -21.4422 78.0598)" class="st0" cx="96.51" cy="68.49" rx="26.49" ry="10.68"/>
						</g>
					</g>
				</g>
			</g>
		</g>
		<g>
			<g>
				<g>
					<g>
						<g>
							
								<rect x="64.88" y="116.88" transform="matrix(0.5 -0.866 0.866 0.5 -93.8896 135.2916)" class="st0" width="10.68" height="64.15"/>
						</g>
					</g>
				</g>
			</g>
			<g>
				<g>
					<g>
						<g>
							
								<ellipse transform="matrix(0.5 -0.866 0.866 0.5 -93.8896 103.2192)" class="st0" cx="42.45" cy="132.92" rx="26.49" ry="10.68"/>
						</g>
					</g>
				</g>
			</g>
		</g>
		<g>
			<g>
				<g>
					<g>
						<g>
							
								<rect x="39.92" y="185.45" transform="matrix(0.1736 -0.9848 0.9848 0.1736 -176.8206 224.3409)" class="st0" width="10.68" height="64.15"/>
						</g>
					</g>
				</g>
			</g>
			<g>
				<g>
					<g>
						<g>
							
								<ellipse transform="matrix(0.1736 -0.9848 0.9848 0.1736 -197.4386 188.6236)" class="st0" cx="13.68" cy="211.96" rx="26.49" ry="10.68"/>
						</g>
					</g>
				</g>
			</g>
		</g>
		<g>
			<g>
				<g>
					<g>
						<g>
							
								<rect x="13.19" y="285.16" transform="matrix(0.9848 -0.1738 0.1738 0.9848 -49.8138 12.2928)" class="st0" width="64.15" height="10.68"/>
						</g>
					</g>
				</g>
			</g>
			<g>
				<g>
					<g>
						<g>
							
								<ellipse transform="matrix(0.9848 -0.1736 0.1736 0.9848 -51.205 6.8731)" class="st0" cx="13.68" cy="296.07" rx="10.68" ry="26.49"/>
						</g>
					</g>
				</g>
			</g>
		</g>
		<g>
			<g>
				<g>
					<g>
						<g>
							
								<rect x="38.15" y="353.74" transform="matrix(0.866 -0.5001 0.5001 0.866 -170.1478 83.2336)" class="st0" width="64.15" height="10.68"/>
						</g>
					</g>
				</g>
			</g>
			<g>
				<g>
					<g>
						<g>
							
								<ellipse transform="matrix(0.866 -0.5 0.5 0.866 -181.8705 71.4785)" class="st0" cx="42.45" cy="375.11" rx="10.68" ry="26.49"/>
						</g>
					</g>
				</g>
			</g>
		</g>
		<g>
			<g>
				<g>
					<g>
						<g>
							
								<rect x="85.05" y="409.64" transform="matrix(0.6427 -0.7661 0.7661 0.6427 -276.0625 237.9868)" class="st0" width="64.15" height="10.69"/>
						</g>
					</g>
				</g>
			</g>
			<g>
				<g>
					<g>
						<g>
							<path class="st0" d="M76.22,422.52c3.79-4.52,15.95-0.56,27.16,8.85c11.21,9.4,17.22,20.69,13.43,25.21
								c-3.79,4.52-15.95,0.56-27.16-8.85C78.44,438.33,72.43,427.04,76.22,422.52z"/>
						</g>
					</g>
				</g>
			</g>
		</g>
		<g>
			<g>
				<g>
					<g>
						<g>
							
								<rect x="148.25" y="446.12" transform="matrix(0.3422 -0.9396 0.9396 0.3422 -305.5894 466.4194)" class="st0" width="64.15" height="10.68"/>
						</g>
					</g>
				</g>
			</g>
			<g>
				<g>
					<g>
						<g>
							
								<ellipse transform="matrix(0.342 -0.9397 0.9397 0.342 -341.1281 476.0296)" class="st0" cx="169.36" cy="481.61" rx="10.68" ry="26.49"/>
						</g>
					</g>
				</g>
			</g>
		</g>
		<g>
			<g>
				<g>
					<g>
						<g>
							<rect x="246.85" y="432.06" class="st0" width="10.68" height="64.15"/>
						</g>
					</g>
				</g>
			</g>
			<g>
				<g>
					<g>
						<g>
							<path class="st0" d="M225.7,496.21c0-5.9,11.86-10.68,26.49-10.68c14.63,0,26.49,4.78,26.49,10.68
								c0,5.9-11.86,10.68-26.49,10.68C237.56,506.89,225.7,502.11,225.7,496.21z"/>
						</g>
					</g>
				</g>
			</g>
		</g>
		<g>
			<g>
				<g>
					<g>
						<g>
							
								<rect x="318.72" y="419.39" transform="matrix(0.9397 -0.342 0.342 0.9397 -134.8732 138.0698)" class="st0" width="10.68" height="64.15"/>
						</g>
					</g>
				</g>
			</g>
			<g>
				<g>
					<g>
						<g>
							<path class="st0" d="M310.13,490.67c-2.02-5.54,7.49-14.1,21.24-19.1c13.75-5,26.53-4.57,28.55,0.98
								c2.02,5.54-7.49,14.1-21.24,19.1C324.93,496.65,312.15,496.21,310.13,490.67z"/>
						</g>
					</g>
				</g>
			</g>
		</g>
		<g>
			<g>
				<g>
					<g>
						<g>
							
								<rect x="381.91" y="382.9" transform="matrix(0.7661 -0.6428 0.6428 0.7661 -176.1402 345.9905)" class="st0" width="10.69" height="64.15"/>
						</g>
					</g>
				</g>
			</g>
			<g>
				<g>
					<g>
						<g>
							<path class="st0" d="M387.58,456.58c-3.79-4.52,2.22-15.81,13.43-25.21c11.21-9.4,23.37-13.37,27.16-8.85
								c3.79,4.52-2.22,15.81-13.43,25.21C403.53,457.14,391.37,461.1,387.58,456.58z"/>
						</g>
					</g>
				</g>
			</g>
		</g>
		<g>
			<g>
				<g>
					<g>
						<g>
							
								<rect x="428.82" y="327" transform="matrix(0.5 -0.866 0.866 0.5 -93.8928 555.5254)" class="st0" width="10.68" height="64.15"/>
						</g>
					</g>
				</g>
			</g>
			<g>
				<g>
					<g>
						<g>
							
								<ellipse transform="matrix(0.5 -0.866 0.866 0.5 -93.8897 587.6075)" class="st0" cx="461.94" cy="375.11" rx="26.49" ry="10.68"/>
						</g>
					</g>
				</g>
			</g>
		</g>
		<g>
			<g>
				<g>
					<g>
						<g>
							
								<rect x="453.78" y="258.43" transform="matrix(0.1736 -0.9848 0.9848 0.1736 93.3094 692.2086)" class="st0" width="10.68" height="64.15"/>
						</g>
					</g>
				</g>
			</g>
			<g>
				<g>
					<g>
						<g>
							
								<ellipse transform="matrix(0.1736 -0.9848 0.9848 0.1736 113.9215 727.9142)" class="st0" cx="490.71" cy="296.07" rx="26.49" ry="10.68"/>
						</g>
					</g>
				</g>
			</g>
		</g>
		<g>
			<g>
				<g>
					<g>
						<g>
							
								<rect x="427.04" y="212.19" transform="matrix(0.9848 -0.1738 0.1738 0.9848 -30.826 83.1292)" class="st0" width="64.15" height="10.68"/>
						</g>
					</g>
				</g>
			</g>
			<g>
				<g>
					<g>
						<g>
							
								<ellipse transform="matrix(0.9848 -0.1736 0.1736 0.9848 -29.3514 88.4294)" class="st0" cx="490.71" cy="211.96" rx="10.68" ry="26.49"/>
						</g>
					</g>
				</g>
			</g>
		</g>
		<g>
			<g>
				<g>
					<g>
						<g>
							
								<rect x="402.08" y="143.62" transform="matrix(0.866 -0.5001 0.5001 0.866 -16.3056 237.0715)" class="st0" width="64.15" height="10.68"/>
						</g>
					</g>
				</g>
			</g>
			<g>
				<g>
					<g>
						<g>
							
								<ellipse transform="matrix(0.866 -0.5 0.5 0.866 -4.5722 248.7769)" class="st0" cx="461.94" cy="132.92" rx="10.68" ry="26.49"/>
						</g>
					</g>
				</g>
			</g>
		</g>
		<g>
			<g>
				<g>
					<g>
						<g>
							
								<rect x="355.18" y="87.71" transform="matrix(0.6427 -0.7661 0.7661 0.6427 67.0602 329.9131)" class="st0" width="64.15" height="10.69"/>
						</g>
					</g>
				</g>
			</g>
			<g>
				<g>
					<g>
						<g>
							<path class="st0" d="M428.17,85.51c-3.79,4.52-15.95,0.56-27.16-8.85c-11.21-9.4-17.22-20.69-13.43-25.21
								c3.79-4.52,15.95-0.56,27.16,8.85C425.95,69.71,431.96,81,428.17,85.51z"/>
						</g>
					</g>
				</g>
			</g>
		</g>
		<g>
			<g>
				<g>
					<g>
						<g>
							
								<rect x="291.98" y="51.23" transform="matrix(0.3422 -0.9396 0.9396 0.3422 160.0156 341.7074)" class="st0" width="64.15" height="10.68"/>
						</g>
					</g>
				</g>
			</g>
			<g>
				<g>
					<g>
						<g>
							<path class="st0" d="M359.92,35.49c-2.02,5.54-14.8,5.98-28.55,0.98c-13.75-5-23.26-13.56-21.24-19.1
								c2.02-5.54,14.8-5.98,28.55-0.98C352.43,21.4,361.94,29.95,359.92,35.49z"/>
						</g>
					</g>
				</g>
			</g>
		</g>
	</g>
	<g>
		<g>
			<g>
				<g>
					<g>
						<g>
							
								<ellipse transform="matrix(0.866 -0.5 0.5 0.866 -31.5716 98.4776)" class="st3" cx="167.98" cy="108.15" rx="31.1" ry="17.1"/>
						</g>
					</g>
				</g>
			</g>
			<g>
				<g>
					<g>
						<g>
							
								<ellipse transform="matrix(0.5 -0.866 0.866 0.5 -93.8895 176.9832)" class="st3" cx="106.33" cy="169.8" rx="31.1" ry="17.1"/>
						</g>
					</g>
				</g>
			</g>
			<g>
				<g>
					<g>
						<g>
							<ellipse class="st3" cx="83.76" cy="254.02" rx="17.1" ry="31.1"/>
						</g>
					</g>
				</g>
			</g>
			<g>
				<g>
					<g>
						<g>
							<path class="st3" d="M90.78,311.3c8.18-4.72,21.77,3.51,30.36,18.38c8.59,14.87,8.92,30.76,0.74,35.48
								c-8.18,4.72-21.77-3.51-30.36-18.38C82.93,331.91,82.6,316.03,90.78,311.3z"/>
						</g>
					</g>
				</g>
			</g>
			<g>
				<g>
					<g>
						<g>
							<path class="st3" d="M141.05,384.33c4.72-8.18,20.61-7.85,35.48,0.74c14.87,8.59,23.1,22.18,18.38,30.36
								c-4.72,8.18-20.61,7.85-35.48-0.74C144.55,406.11,136.33,392.51,141.05,384.33z"/>
						</g>
					</g>
				</g>
			</g>
			<g>
				<g>
					<g>
						<g>
							<ellipse class="st4" cx="252.19" cy="422.45" rx="31.1" ry="17.1"/>
						</g>
					</g>
				</g>
			</g>
			<g>
				<g>
					<g>
						<g>
							<path class="st4" d="M309.48,415.43c-4.72-8.18,3.51-21.77,18.38-30.36c14.87-8.59,30.76-8.92,35.48-0.74
								c4.72,8.18-3.51,21.77-18.38,30.36C330.09,423.28,314.2,423.61,309.48,415.43z"/>
						</g>
					</g>
				</g>
			</g>
			<g>
				<g>
					<g>
						<g>
							
								<ellipse transform="matrix(0.5 -0.866 0.866 0.5 -93.8894 513.8441)" class="st4" cx="398.06" cy="338.23" rx="31.1" ry="17.1"/>
						</g>
					</g>
				</g>
			</g>
			<g>
				<g>
					<g>
						<g>
							<ellipse class="st4" cx="420.62" cy="254.02" rx="17.1" ry="31.1"/>
						</g>
					</g>
				</g>
			</g>
			<g>
				<g>
					<g>
						<g>
							
								<ellipse transform="matrix(0.866 -0.5 0.5 0.866 -31.5717 221.777)" class="st4" cx="398.06" cy="169.8" rx="17.1" ry="31.1"/>
						</g>
					</g>
				</g>
			</g>
			<g>
				<g>
					<g>
						<g>
							
								<ellipse transform="matrix(0.5 -0.866 0.866 0.5 74.5406 345.4133)" class="st4" cx="336.41" cy="108.15" rx="17.1" ry="31.1"/>
						</g>
					</g>
				</g>
			</g>
			<g>
				<g>
					<g>
						<g>
							<ellipse class="st4" cx="252.19" cy="85.59" rx="31.1" ry="17.1"/>
						</g>
					</g>
				</g>
			</g>
		</g>
		<g>
			<g>
				<g>
					<g>
						<path class="st4" d="M252.19,141.75c-2.95,0-5.34-2.39-5.34-5.34V85.59c0-2.95,2.39-5.34,5.34-5.34s5.34,2.39,5.34,5.34v50.82
							C257.53,139.35,255.14,141.75,252.19,141.75z"/>
					</g>
				</g>
			</g>
		</g>
		<g>
			<g>
				<g>
					<g>
						<path class="st3" d="M193.39,157.5c-1.84,0-3.64-0.96-4.63-2.67l-25.41-44.01c-1.47-2.55-0.6-5.82,1.95-7.3
							c2.55-1.47,5.82-0.61,7.3,1.95l25.41,44.01c1.47,2.55,0.6,5.82-1.95,7.3C195.22,157.27,194.3,157.5,193.39,157.5z"/>
					</g>
				</g>
			</g>
		</g>
		<g>
			<g>
				<g>
					<g>
						<path class="st3" d="M150.33,200.55c-0.91,0-1.83-0.23-2.67-0.72l-44.01-25.41c-2.56-1.47-3.43-4.74-1.95-7.3
							c1.47-2.56,4.74-3.43,7.3-1.95l44.01,25.41c2.56,1.47,3.43,4.74,1.95,7.3C153.97,199.6,152.18,200.55,150.33,200.55z"/>
					</g>
				</g>
			</g>
		</g>
		<g>
			<g>
				<g>
					<g>
						<path class="st3" d="M134.58,259.36H83.76c-2.95,0-5.34-2.39-5.34-5.34c0-2.95,2.39-5.34,5.34-5.34h50.82
							c2.95,0,5.34,2.39,5.34,5.34C139.92,256.97,137.53,259.36,134.58,259.36z"/>
					</g>
				</g>
			</g>
		</g>
		<g>
			<g>
				<g>
					<g>
						<path class="st3" d="M106.33,343.58c-1.84,0-3.64-0.96-4.63-2.67c-1.47-2.55-0.6-5.82,1.95-7.3l44.01-25.41
							c2.55-1.48,5.82-0.61,7.3,1.95c1.47,2.55,0.6,5.82-1.95,7.3L109,342.86C108.16,343.34,107.24,343.58,106.33,343.58z"/>
					</g>
				</g>
			</g>
		</g>
		<g>
			<g>
				<g>
					<g>
						<path class="st3" d="M167.97,405.23c-0.91,0-1.83-0.23-2.67-0.72c-2.56-1.47-3.43-4.74-1.95-7.3l25.41-44.01
							c1.47-2.56,4.74-3.43,7.3-1.95c2.56,1.47,3.43,4.74,1.95,7.3l-25.41,44.01C171.61,404.27,169.82,405.23,167.97,405.23z"/>
					</g>
				</g>
			</g>
		</g>
		<g>
			<g>
				<g>
					<g>
						<path class="st4" d="M252.19,427.79c-2.95,0-5.34-2.39-5.34-5.34v-50.82c0-2.95,2.39-5.34,5.34-5.34s5.34,2.39,5.34,5.34
							v50.82C257.53,425.4,255.14,427.79,252.19,427.79z"/>
					</g>
				</g>
			</g>
		</g>
		<g>
			<g>
				<g>
					<g>
						<path class="st4" d="M336.41,405.23c-1.84,0-3.64-0.96-4.63-2.67l-25.41-44.01c-1.47-2.55-0.6-5.82,1.95-7.3
							c2.55-1.48,5.82-0.6,7.3,1.95l25.41,44.01c1.47,2.55,0.6,5.82-1.95,7.3C338.24,404.99,337.32,405.23,336.41,405.23z"/>
					</g>
				</g>
			</g>
		</g>
		<g>
			<g>
				<g>
					<g>
						<path class="st4" d="M398.05,343.58c-0.91,0-1.83-0.23-2.67-0.72l-44.01-25.41c-2.56-1.47-3.43-4.74-1.95-7.3
							c1.47-2.56,4.74-3.43,7.3-1.95l44.01,25.41c2.56,1.47,3.43,4.74,1.95,7.3C401.69,342.62,399.9,343.58,398.05,343.58z"/>
					</g>
				</g>
			</g>
		</g>
		<g>
			<g>
				<g>
					<g>
						<path class="st4" d="M420.62,259.36h-50.82c-2.95,0-5.34-2.39-5.34-5.34c0-2.95,2.39-5.34,5.34-5.34h50.82
							c2.95,0,5.34,2.39,5.34,5.34C425.96,256.97,423.57,259.36,420.62,259.36z"/>
					</g>
				</g>
			</g>
		</g>
		<g>
			<g>
				<g>
					<g>
						<path class="st4" d="M354.05,200.55c-1.84,0-3.64-0.96-4.63-2.67c-1.47-2.55-0.6-5.82,1.95-7.3l44.01-25.41
							c2.55-1.47,5.82-0.6,7.3,1.95c1.47,2.55,0.6,5.82-1.95,7.3l-44.01,25.41C355.88,200.32,354.96,200.55,354.05,200.55z"/>
					</g>
				</g>
			</g>
		</g>
		<g>
			<g>
				<g>
					<g>
						<path class="st4" d="M311,157.5c-0.91,0-1.83-0.23-2.67-0.72c-2.56-1.47-3.43-4.74-1.95-7.3l25.41-44.01
							c1.47-2.56,4.75-3.43,7.3-1.95c2.56,1.47,3.43,4.74,1.95,7.3l-25.41,44.01C314.64,156.55,312.84,157.5,311,157.5z"/>
					</g>
				</g>
			</g>
		</g>
	</g>
	<g>
		<g>
			<g>
				<g>
					
						<ellipse transform="matrix(0.9871 -0.1602 0.1602 0.9871 -37.4327 43.6767)" class="st3" cx="252.19" cy="254.02" rx="31.1" ry="31.1"/>
				</g>
			</g>
		</g>
	</g>
	<g>
		<g>
			<g>
				<g>
					<g>
						<g>
							<path class="st3" d="M252.19,134.71c-17.61,0-31.89,12.15-31.89,27.14c0,14.99,14.28,27.14,31.89,27.14
								c17.61,0,31.88-12.15,31.88-27.14C284.07,146.87,269.8,134.71,252.19,134.71L252.19,134.71z"/>
						</g>
					</g>
				</g>
			</g>
		</g>
		<g>
			<g>
				<g>
					<g>
						<path class="st3" d="M252.19,201.2c-2.95,0-5.34-2.39-5.34-5.34v-34.01c0-2.95,2.39-5.34,5.34-5.34s5.34,2.39,5.34,5.34v34.01
							C257.53,198.81,255.14,201.2,252.19,201.2z"/>
					</g>
				</g>
			</g>
		</g>
		<g>
			<g>
				<g>
					<g>
						<g>
							<path class="st3" d="M148.87,194.37c-8.8,15.25-5.42,33.69,7.56,41.19c12.98,7.49,30.64,1.2,39.45-14.04
								c8.8-15.25,5.42-33.69-7.56-41.18C175.34,172.83,157.68,179.12,148.87,194.37L148.87,194.37z"/>
						</g>
					</g>
				</g>
			</g>
		</g>
		<g>
			<g>
				<g>
					<g>
						<path class="st3" d="M201.83,230.28c-0.91,0-1.83-0.23-2.67-0.72l-29.45-17c-2.56-1.47-3.43-4.74-1.95-7.3
							c1.47-2.56,4.75-3.43,7.3-1.95l29.45,17c2.56,1.47,3.43,4.74,1.95,7.3C205.47,229.33,203.67,230.28,201.83,230.28z"/>
					</g>
				</g>
			</g>
		</g>
		<g>
			<g>
				<g>
					<g>
						<g>
							<path class="st3" d="M148.87,313.67c8.8,15.25,26.47,21.54,39.45,14.04c12.98-7.49,16.36-25.93,7.56-41.18
								c-8.8-15.25-26.46-21.54-39.44-14.04C143.46,279.98,140.07,298.42,148.87,313.67L148.87,313.67z"/>
						</g>
					</g>
				</g>
			</g>
		</g>
		<g>
			<g>
				<g>
					<g>
						<path class="st3" d="M172.38,305.44c-1.84,0-3.64-0.96-4.63-2.67c-1.47-2.55-0.6-5.82,1.95-7.3l29.45-17
							c2.55-1.48,5.82-0.6,7.3,1.95c1.47,2.55,0.6,5.82-1.95,7.3l-29.45,17C174.21,305.21,173.29,305.44,172.38,305.44z"/>
					</g>
				</g>
			</g>
		</g>
		<g>
			<g>
				<g>
					<g>
						<g>
							<path class="st3" d="M252.19,373.32c17.61,0,31.89-12.15,31.89-27.14c0-14.99-14.28-27.14-31.89-27.14
								c-17.61,0-31.88,12.15-31.88,27.14C220.31,361.17,234.58,373.32,252.19,373.32L252.19,373.32z"/>
						</g>
					</g>
				</g>
			</g>
		</g>
		<g>
			<g>
				<g>
					<g>
						<path class="st3" d="M252.19,351.52c-2.95,0-5.34-2.39-5.34-5.34v-34.01c0-2.95,2.39-5.34,5.34-5.34s5.34,2.39,5.34,5.34
							v34.01C257.53,349.13,255.14,351.52,252.19,351.52z"/>
					</g>
				</g>
			</g>
		</g>
		<g>
			<g>
				<g>
					<g>
						<g>
							<path class="st3" d="M355.51,313.67c8.8-15.25,5.42-33.69-7.56-41.19c-12.98-7.49-30.64-1.2-39.45,14.04
								c-8.8,15.25-5.42,33.69,7.56,41.18C329.05,335.2,346.71,328.92,355.51,313.67L355.51,313.67z"/>
						</g>
					</g>
				</g>
			</g>
		</g>
		<g>
			<g>
				<g>
					<g>
						<path class="st3" d="M332,305.44c-0.91,0-1.83-0.23-2.67-0.72l-29.45-17c-2.56-1.47-3.43-4.74-1.95-7.3
							c1.47-2.56,4.74-3.43,7.3-1.95l29.45,17c2.56,1.47,3.43,4.74,1.95,7.3C335.64,304.48,333.85,305.44,332,305.44z"/>
					</g>
				</g>
			</g>
		</g>
		<g>
			<g>
				<g>
					<g>
						<g>
							<path class="st3" d="M355.51,194.37c-8.8-15.25-26.47-21.54-39.45-14.04c-12.98,7.49-16.36,25.93-7.56,41.18
								c8.8,15.25,26.46,21.54,39.44,14.04C360.93,228.05,364.32,209.62,355.51,194.37L355.51,194.37z"/>
						</g>
					</g>
				</g>
			</g>
		</g>
		<g>
			<g>
				<g>
					<g>
						<path class="st3" d="M302.56,230.28c-1.84,0-3.64-0.96-4.63-2.67c-1.47-2.55-0.6-5.82,1.95-7.3l29.45-17
							c2.55-1.48,5.82-0.61,7.3,1.95c1.47,2.55,0.6,5.82-1.95,7.3l-29.45,17C304.39,230.05,303.47,230.28,302.56,230.28z"/>
					</g>
				</g>
			</g>
		</g>
	</g>
</g>
</svg>
