<svg width="64" height="64" viewBox="0 0 64 64" fill="none" xmlns="http://www.w3.org/2000/svg">
<path d="M43.5379 25.2534C43.3165 24.9643 42.9708 24.8 42.6066 24.8H16.8C16.3582 24.8 16 25.1582 16 25.6V51.4092C16 51.7733 16.1643 52.1191 16.4534 52.3404C19.0017 54.291 21.9272 55.7736 25.1016 56.6598C25.3533 56.7301 25.6 56.5389 25.6 56.2775V41.1882L40.014 55.6022C40.3411 55.9293 40.8281 56.0416 41.2593 55.8742C43.994 54.8128 46.5011 53.2951 48.687 51.4146C48.8958 51.2349 48.9044 50.9161 48.7096 50.7213L32.3882 34.4H47.4747C47.7361 34.4 47.9273 34.1533 47.857 33.9016C46.9709 30.7272 45.4884 27.8017 43.5379 25.2534Z" fill="#3D7DFC"/>
<path d="M16.6 22.4C16.2686 22.4 15.9988 22.1303 16.0111 21.7992C16.327 13.241 23.3646 6.39999 32 6.39999C40.8366 6.39999 48 13.5635 48 22.4V26.9846C48 27.1935 47.715 27.2652 47.6126 27.0832C46.8621 25.75 46.0058 24.4847 45.0553 23.2989L44.8151 22.9993C44.5114 22.6205 44.0522 22.4 43.5667 22.4H16.6Z" fill="#FFA805"/>
<path d="M32 62.4C48.7895 62.4 62.4 48.7895 62.4 32C62.4 15.2105 48.7895 1.60001 32 1.60001C15.2105 1.60001 1.60001 15.2105 1.60001 32C1.60001 48.7895 15.2105 62.4 32 62.4Z" stroke="#3D7DFC" stroke-width="3.2"/>
</svg>
