<?xml version="1.0" encoding="utf-8"?>
<!-- Generator: Adobe Illustrator 27.4.0, SVG Export Plug-In . SVG Version: 6.00 Build 0)  -->
<svg version="1.1" id="Layer_1" xmlns="http://www.w3.org/2000/svg" xmlns:xlink="http://www.w3.org/1999/xlink" x="0px" y="0px"
	 viewBox="0 0 600 254" style="enable-background:new 0 0 600 254;" xml:space="preserve">
<style type="text/css">
	.st0{fill-rule:evenodd;clip-rule:evenodd;fill:url(#SVGID_1_);}
	.st1{fill:#00752F;}
	.st2{fill:#72BF54;}
</style>
<linearGradient id="SVGID_1_" gradientUnits="userSpaceOnUse" x1="236.9132" y1="96.159" x2="329.6577" y2="96.159">
	<stop  offset="0.1096" style="stop-color:#00752F"/>
	<stop  offset="0.9579" style="stop-color:#72BF54"/>
</linearGradient>
<path class="st0" d="M326.04,77.73c-2.38-5.75-5.77-10.89-10.2-15.31c-4.48-4.47-9.74-7.91-15.58-10.41
	c-5.71-2.44-11.76-3.61-17.94-3.81c26.03,8.21,40.95,36.03,30.88,61.94c-7.25,18.59-28.62,27.86-47.06,19.69
	c-0.57-0.25-1.14-0.53-1.69-0.8c-3.13-2.73-5.47-6.23-6.69-10.51c-2.81-9.84,0.5-22.02,11.19-29.67
	c-18.97,6.42-21.39,32.94-8.31,44.1c-3.12-2.2-5.84-4.62-8.18-7.18c-7.61-9.47-10.37-21.21-8.44-32.21
	c32.13-10.11,14.11-28.43,31.01-45.54c-34.8-0.48-38.59,22.46-36.64,36.61c0.86-7.77,12.28-24.24,23.83-29.93
	c-19.36,18.08-33.83,43.74-19.23,67.81c-2.34-2.48-4.38-5.14-6.07-7.84c17.08,39.89,75.44,39.49,89.56-0.88
	c2.15-5.6,3.18-11.46,3.18-17.47C329.66,89.9,328.49,83.66,326.04,77.73z M257.31,132.82c0.14-0.04,0.28-0.08,0.42-0.11"/>
<path class="st1" d="M52.53,74.61c-2.82-8.45-7.78-18.37-18.78-18.37c-7.51,0-13.01,5.63-13.01,13.28c0,7.38,4.83,11.67,16.63,17.57
	c14.08,6.84,23.74,14.35,23.74,27.63c0,15.29-13.01,27.23-32.59,27.23c-4.83,0-9.52-0.67-13.55-1.88c-3.76-1.07-6.3-2.15-8.18-2.95
	c-1.21-3.35-2.95-14.62-3.89-22.8l4.69-1.48c2.68,8.58,10.6,23.6,23.47,23.6c8.18,0,13.41-5.63,13.41-14.08
	c0-7.91-5.9-12.88-15.96-18.24C14.71,97.14,5.19,89.9,5.19,77.02c0-14.75,11.67-26.29,30.71-26.29c8.58,0,16.23,2.68,18.64,3.62
	c0.54,4.96,1.48,10.86,2.55,19.18L52.53,74.61z"/>
<path class="st1" d="M106.45,52.74c10.6,0,18.24,1.48,23.47,5.23c6.3,4.29,9.93,11,9.93,19.72c0,17.97-13.28,26.15-27.36,27.9
	c-2.01,0.27-4.16,0.27-5.63,0.27l-9.12-2.15v18.37c0,11.4,1.21,12.34,12.74,13.28v4.56H68.76v-4.56
	c10.06-0.94,11.27-1.88,11.27-13.28V70.72c0-11.4-1.21-12.21-10.46-13.28v-4.69H106.45z M97.73,98.35c1.61,0.67,4.43,1.34,7.24,1.34
	c4.96,0,15.69-3.49,15.69-21.59c0-15.16-8.58-20.12-16.76-20.12c-2.55,0-4.16,0.67-4.96,1.34c-0.8,0.8-1.21,2.15-1.21,4.16V98.35z"
	/>
<path class="st1" d="M231.18,141.13c-0.8,0-2.41-0.13-4.02-0.13c-16.9-0.8-22.13-4.56-27.49-13.01c-3.49-5.5-7.11-12.74-11-19.72
	c-2.15-4.16-4.56-5.77-8.85-5.9h-2.55v19.58c0,11,1.34,12.34,11.4,13.28v4.69h-40.5v-4.69c10.06-0.94,11.53-2.28,11.53-13.28v-51.5
	c0-10.73-1.21-12.07-11-13.01v-4.69h37.69c11.67,0,18.51,1.34,23.87,5.1c5.37,3.49,9.12,9.52,9.12,17.84
	c0,11.8-7.78,18.11-16.77,21.86c1.88,3.89,6.97,12.88,10.86,19.04c4.83,7.38,7.64,11.67,10.33,14.49c2.95,3.08,5.1,4.69,8.18,5.77
	L231.18,141.13z M180.75,97.14c5.63,0,10.19-0.94,13.14-3.62c4.56-3.76,6.44-9.12,6.44-15.96c0-14.22-8.32-19.45-15.83-19.45
	c-3.35,0-5.23,0.54-6.04,1.34c-0.94,0.8-1.21,2.15-1.21,4.96v32.72H180.75z"/>
<path class="st1" d="M429.13,57.44c-7.38,0.4-10.73,3.22-11.4,7.91c-0.67,4.16-1.21,9.12-1.21,18.64v14.62
	c0,14.22-2.15,25.48-9.66,33.53c-6.17,6.44-15.29,9.79-24.81,9.79c-8.85,0-17.3-1.88-23.74-6.97c-7.64-5.9-11.13-15.83-11.13-31.52
	V71.92c0-12.61-1.34-13.55-11.27-14.49v-4.69h40.37v4.69c-9.79,0.94-11.13,1.88-11.13,14.49v29.1c0,20.12,7.24,31.79,21.73,31.79
	c15.96,0,22.93-12.07,22.93-34.47V83.99c0-9.52-0.67-14.62-1.34-18.64c-0.67-4.69-3.89-7.38-13.01-7.91v-4.69h33.66V57.44z"/>
<path class="st1" d="M509.47,75.68c-1.61-6.97-3.49-11.4-5.9-13.81c-2.28-2.41-5.77-3.22-13.55-3.22h-6.17v63.44
	c0,11.4,1.34,12.21,13.14,13.14v4.69h-43.72v-4.69c11.27-0.94,12.61-1.74,12.61-13.14V58.65h-4.56c-11,0-13.41,1.48-15.42,3.62
	c-2.15,2.28-3.89,6.84-5.63,13.55h-4.83c0.54-9.79,1.34-19.58,1.61-26.42h3.22c2.15,3.08,3.89,3.35,7.64,3.35h53.92
	c3.62,0,5.5-0.8,7.78-3.35h3.22c0.13,5.63,0.8,17.44,1.48,26.02L509.47,75.68z"/>
<path class="st1" d="M573.57,74.61c-2.82-8.45-7.78-18.37-18.78-18.37c-7.51,0-13.01,5.63-13.01,13.28
	c0,7.38,4.83,11.67,16.63,17.57c14.08,6.84,23.74,14.35,23.74,27.63c0,15.29-13.01,27.23-32.59,27.23c-4.83,0-9.52-0.67-13.55-1.88
	c-3.76-1.07-6.3-2.15-8.18-2.95c-1.21-3.35-2.95-14.62-3.89-22.8l4.69-1.48c2.68,8.58,10.6,23.6,23.47,23.6
	c8.18,0,13.41-5.63,13.41-14.08c0-7.91-5.9-12.88-15.96-18.24c-13.81-6.97-23.34-14.22-23.34-27.09c0-14.75,11.67-26.29,30.71-26.29
	c8.58,0,16.23,2.68,18.64,3.62c0.54,4.96,1.48,10.86,2.55,19.18L573.57,74.61z"/>
<path class="st2" d="M55.05,171.1c-0.61-2.37-1.21-3.89-2.19-5.1c-1.15-1.46-2.67-1.88-6.56-1.88h-3.58c-2,0-2.25,0.12-2.25,2.06
	v13.72h5.46c5.4,0,5.89-0.55,6.62-4.43h2v11.96h-2c-0.67-4.13-1.21-4.74-6.62-4.74h-5.46v10.14c0,5.52,0.55,5.89,5.89,6.31v1.94
	H28.28v-1.94c4.61-0.42,5.16-0.79,5.16-6.31v-23.07c0-5.4-0.55-5.77-5.04-6.13v-2h27.98c0.06,1.46,0.36,5.83,0.67,9.17L55.05,171.1z
	"/>
<path class="st2" d="M79.46,201.09v-1.94c3.64-0.55,4.01-1.21,3.16-3.76c-0.67-2-1.7-4.86-2.79-7.77H67.74
	c-0.79,2.25-1.64,4.55-2.37,6.98c-1.03,3.28-0.73,4.01,3.7,4.55v1.94H55.66v-1.94c3.95-0.55,4.74-1.09,6.8-6.31l12.44-31.38
	l2.67-0.73c3.89,10.56,7.71,21.49,11.66,31.93c2,5.34,2.79,6.01,6.68,6.49v1.94H79.46z M73.99,170.68h-0.18
	c-1.76,4.68-3.4,9.41-5.1,13.96h10.08L73.99,170.68z"/>
<path class="st2" d="M136.09,201.64c-0.49,0-1.21-0.06-1.88-0.06c-6.56-0.3-8.98-1.88-11.53-5.77c-1.76-2.67-3.64-6.13-5.4-9.23
	c-0.97-1.82-2.06-2.55-4.43-2.55h-1.4v9.17c0,4.98,0.55,5.52,5.22,5.95v1.94H99.19v-1.94c4.67-0.42,5.34-0.91,5.34-5.95v-23.74
	c0-4.98-0.55-5.46-5.1-5.83v-2h16.33c4.98,0,8.01,0.61,10.44,2.19c2.43,1.64,4.07,4.31,4.07,8.07c0,5.28-3.46,8.26-7.65,10.02
	c0.97,1.88,3.28,5.95,5.1,8.68c2.19,3.34,3.46,5.16,4.8,6.5c1.4,1.58,2.55,2.31,3.95,2.73L136.09,201.64z M113.45,181.79
	c2.79,0,4.8-0.49,6.19-1.64c2.12-1.76,3.04-4.19,3.04-7.34c0-6.5-3.89-8.92-7.77-8.92c-1.58,0-2.49,0.3-2.91,0.61
	c-0.42,0.36-0.55,1.03-0.55,2.43v14.87H113.45z"/>
<path class="st2" d="M171.18,201.09v-1.94c4.74-0.49,4.98-0.91,4.98-6.8l-0.18-23.86h-0.24l-13.9,32.17h-1.58l-12.81-31.51h-0.18
	l-0.79,16.39c-0.24,5.04-0.24,7.77-0.06,9.89c0.18,2.79,1.46,3.28,5.52,3.64v2h-14.45v-2c3.46-0.3,4.61-1.28,4.98-3.52
	c0.36-2,0.79-4.98,1.27-11.35l0.91-12.2c0.55-7.28,0.12-7.89-5.22-8.38v-2h11.66l12.44,27.92l12.69-27.92h11.53v2
	c-5.04,0.49-5.34,0.79-5.22,6.31l0.61,22.4c0.12,5.89,0.36,6.31,5.34,6.8v1.94H171.18z"/>
<path class="st2" d="M224.3,191.19c-0.36,2.43-1.58,8.07-2.12,9.89h-30.35v-1.94c5.28-0.42,5.83-0.85,5.83-5.95v-23.61
	c0-5.34-0.55-5.59-4.98-5.95v-2h27.98c0.06,1.21,0.36,5.46,0.61,8.98l-2.06,0.3c-0.55-2.31-1.27-4.07-2.25-5.22
	c-0.97-1.15-2.61-1.58-6.37-1.58h-3.52c-2.12,0-2.31,0.12-2.31,2.06v13.17h4.67c5.22,0,5.83-0.36,6.62-4.55h2.06v12.02h-2.06
	c-0.79-4.37-1.4-4.61-6.62-4.61h-4.67v10.81c0,2.91,0.3,4.31,1.46,4.98c1.09,0.61,3.22,0.67,5.71,0.67c3.7,0,5.71-0.43,7.1-2
	c1.15-1.28,2.25-3.28,3.28-5.83L224.3,191.19z"/>
<path class="st2" d="M264.24,201.64c-0.49,0-1.21-0.06-1.88-0.06c-6.56-0.3-8.98-1.88-11.53-5.77c-1.76-2.67-3.64-6.13-5.4-9.23
	c-0.97-1.82-2.06-2.55-4.43-2.55h-1.4v9.17c0,4.98,0.55,5.52,5.22,5.95v1.94h-17.48v-1.94c4.67-0.42,5.34-0.91,5.34-5.95v-23.74
	c0-4.98-0.55-5.46-5.1-5.83v-2h16.33c4.98,0,8.01,0.61,10.44,2.19c2.43,1.64,4.07,4.31,4.07,8.07c0,5.28-3.46,8.26-7.65,10.02
	c0.97,1.88,3.28,5.95,5.1,8.68c2.19,3.34,3.46,5.16,4.8,6.5c1.4,1.58,2.55,2.31,3.95,2.73L264.24,201.64z M241.6,181.79
	c2.79,0,4.8-0.49,6.19-1.64c2.12-1.76,3.04-4.19,3.04-7.34c0-6.5-3.89-8.92-7.77-8.92c-1.58,0-2.49,0.3-2.91,0.61
	c-0.42,0.36-0.55,1.03-0.55,2.43v14.87H241.6z"/>
<path class="st2" d="M288.52,171.28c-1.21-3.82-3.28-8.2-8.32-8.2c-3.82,0-6.19,2.79-6.19,6.19c0,3.76,2.49,5.77,7.65,8.32
	c5.77,2.91,10.62,6.07,10.62,12.38c0,6.74-5.71,12.02-14.33,12.02c-2.31,0-4.37-0.36-6.01-0.91c-1.64-0.49-2.73-0.91-3.46-1.28
	c-0.55-1.46-1.34-6.56-1.76-9.96l2.06-0.61c1.09,3.82,4.37,10.38,10.32,10.38c4.07,0,6.56-2.67,6.56-6.74c0-3.89-2.91-6.13-7.47-8.5
	c-5.4-2.79-10.38-6.01-10.38-12.2c0-6.31,5.04-11.47,13.36-11.47c3.52,0,6.62,1.03,8.19,1.52c0.24,2.25,0.61,4.8,1.09,8.62
	L288.52,171.28z"/>
<path class="st2" d="M342.73,201.09v-1.94c4.74-0.49,4.98-0.91,4.98-6.8l-0.18-23.86h-0.24l-13.9,32.17h-1.58L319,169.16h-0.18
	l-0.79,16.39c-0.24,5.04-0.24,7.77-0.06,9.89c0.18,2.79,1.46,3.28,5.52,3.64v2h-14.45v-2c3.46-0.3,4.61-1.28,4.98-3.52
	c0.36-2,0.79-4.98,1.28-11.35l0.91-12.2c0.55-7.28,0.12-7.89-5.22-8.38v-2h11.66l12.44,27.92l12.69-27.92h11.53v2
	c-5.04,0.49-5.34,0.79-5.22,6.31l0.61,22.4c0.12,5.89,0.36,6.31,5.34,6.8v1.94H342.73z"/>
<path class="st2" d="M386.68,201.09v-1.94c3.64-0.55,4.01-1.21,3.16-3.76c-0.67-2-1.7-4.86-2.79-7.77h-12.08
	c-0.79,2.25-1.64,4.55-2.37,6.98c-1.03,3.28-0.73,4.01,3.7,4.55v1.94h-13.42v-1.94c3.95-0.55,4.74-1.09,6.8-6.31l12.44-31.38
	l2.67-0.73c3.89,10.56,7.71,21.49,11.66,31.93c2,5.34,2.79,6.01,6.68,6.49v1.94H386.68z M381.22,170.68h-0.18
	c-1.76,4.68-3.4,9.41-5.1,13.96h10.08L381.22,170.68z"/>
<path class="st2" d="M443.32,201.64c-0.49,0-1.21-0.06-1.88-0.06c-6.56-0.3-8.98-1.88-11.53-5.77c-1.76-2.67-3.64-6.13-5.4-9.23
	c-0.97-1.82-2.06-2.55-4.43-2.55h-1.4v9.17c0,4.98,0.55,5.52,5.22,5.95v1.94h-17.48v-1.94c4.68-0.42,5.34-0.91,5.34-5.95v-23.74
	c0-4.98-0.55-5.46-5.1-5.83v-2h16.33c4.98,0,8.01,0.61,10.44,2.19c2.43,1.64,4.07,4.31,4.07,8.07c0,5.28-3.46,8.26-7.65,10.02
	c0.97,1.88,3.28,5.95,5.1,8.68c2.19,3.34,3.46,5.16,4.8,6.5c1.4,1.58,2.55,2.31,3.95,2.73L443.32,201.64z M420.68,181.79
	c2.79,0,4.8-0.49,6.19-1.64c2.12-1.76,3.04-4.19,3.04-7.34c0-6.5-3.89-8.92-7.77-8.92c-1.58,0-2.49,0.3-2.91,0.61
	c-0.42,0.36-0.55,1.03-0.55,2.43v14.87H420.68z"/>
<path class="st2" d="M474.04,201.09c-3.4-4.19-8.38-10.87-13.11-17.24c-1.34-1.76-2.12-2.06-3.1-1.94v11.17
	c0,5.22,0.61,5.65,5.34,6.07v1.94h-17.24v-1.94c4.43-0.42,5.04-0.85,5.04-6.07v-23.37c0-5.34-0.55-5.71-5.22-6.07v-2h17.06v2
	c-4.43,0.36-4.98,0.79-4.98,6.07v10.38c1.34-0.36,2.73-1.27,4.49-3.04c3.82-3.76,6.86-7.22,9.11-10.14c1.58-2,1.52-2.79-1.34-3.16
	l-1.15-0.12v-2h15.3v2c-4.01,0.36-6.13,1.03-9.71,4.31c-3.1,2.91-6.31,6.31-9.47,9.59c4.07,5.83,9.41,12.44,13.23,17.12
	c2.79,3.28,4.31,4.13,6.92,4.49v1.94H474.04z"/>
<path class="st2" d="M519.57,191.19c-0.36,2.43-1.58,8.07-2.12,9.89h-30.35v-1.94c5.28-0.42,5.83-0.85,5.83-5.95v-23.61
	c0-5.34-0.55-5.59-4.98-5.95v-2h27.98c0.06,1.21,0.36,5.46,0.61,8.98l-2.06,0.3c-0.55-2.31-1.27-4.07-2.25-5.22
	c-0.97-1.15-2.61-1.58-6.37-1.58h-3.52c-2.12,0-2.31,0.12-2.31,2.06v13.17h4.67c5.22,0,5.83-0.36,6.62-4.55h2.06v12.02h-2.06
	c-0.79-4.37-1.4-4.61-6.62-4.61h-4.67v10.81c0,2.91,0.3,4.31,1.46,4.98c1.09,0.61,3.22,0.67,5.71,0.67c3.7,0,5.71-0.43,7.1-2
	c1.15-1.28,2.25-3.28,3.28-5.83L519.57,191.19z"/>
<path class="st2" d="M554.96,171.65c-0.73-3.04-1.46-4.92-2.37-5.95c-1.09-1.21-2.43-1.58-6.37-1.58h-3.28v29.08
	c0,5.04,0.55,5.52,6.07,5.95v1.94h-18.94v-1.94c5.22-0.42,5.83-0.91,5.83-5.95v-29.08h-2.73c-4.98,0-6.13,0.55-6.98,1.7
	c-0.91,1.03-1.58,2.97-2.31,5.89h-2.06c0.24-4.13,0.61-8.44,0.73-11.59h1.4c0.91,1.4,1.7,1.52,3.4,1.52h24.28
	c1.58,0,2.31-0.36,3.34-1.52h1.4c0,2.61,0.3,7.65,0.61,11.41L554.96,171.65z"/>
<g>
	<g>
		<path class="st1" d="M597,57.24c0,3.69-2.9,6.59-6.67,6.59c-3.73,0-6.71-2.9-6.71-6.59c0-3.61,2.98-6.51,6.71-6.51
			C594.1,50.73,597,53.63,597,57.24z M585.29,57.24c0,2.9,2.15,5.2,5.08,5.2c2.86,0,4.96-2.3,4.96-5.16c0-2.9-2.1-5.24-5-5.24
			C587.44,52.04,585.29,54.38,585.29,57.24z M589.3,60.66h-1.51v-6.51c0.59-0.12,1.43-0.2,2.5-0.2c1.23,0,1.78,0.2,2.26,0.48
			c0.36,0.28,0.63,0.79,0.63,1.43c0,0.71-0.56,1.27-1.35,1.51v0.08c0.63,0.24,0.99,0.71,1.19,1.59c0.2,0.99,0.32,1.39,0.48,1.63
			h-1.63c-0.2-0.24-0.32-0.83-0.52-1.59c-0.12-0.71-0.51-1.03-1.35-1.03h-0.71V60.66z M589.34,56.97h0.71
			c0.83,0,1.51-0.28,1.51-0.95c0-0.6-0.44-0.99-1.39-0.99c-0.4,0-0.68,0.04-0.83,0.08V56.97z"/>
	</g>
</g>
</svg>
