<svg fill="none" viewBox="16 18 198 64" xmlns="http://www.w3.org/2000/svg"><g fill="#1b2631"><path d="m95.909 74.094c0 .2209.1791.4.4.4h4.024c.221 0 .4-.1791.4-.4v-20.148c0-.221-.179-.4-.4-.4h-4.024c-.2209 0-.4.179-.4.4z"/><path d="m114.523 63.5019.005.0051c.353.4238.545 1.1251.545 2.137v8.45c0 .2209.179.4.4.4h3.879c.221 0 .4-.1791.4-.4v-8.653c0-2.0765-.438-3.6619-1.34-4.7296-.907-1.0725-2.26-1.5974-4.03-1.5974-1.086 0-2.068.2372-2.943.7143l-.001.0007c-.648.3614-1.204.8426-1.668 1.4421-.031.0404-.085.0573-.139.0444-.054-.0126-.085-.0474-.091-.0917l-.173-1.3824c-.025-.2002-.195-.3504-.397-.3504h-3.614c-.241 0-.425.2107-.399.448.132 1.1606.198 2.4628.198 3.907v10.248c0 .2209.179.4.4.4h3.879c.221 0 .4-.1791.4-.4v-7.986c0-1.0151.281-1.8066.829-2.3914.548-.5841 1.279-.8806 2.211-.8806.782 0 1.319.2316 1.649.6659z"/><path d="m130.151 57.1422.003-.0026c.372-.3548.874-.5386 1.52-.5386.3 0 .66.0426 1.081.1301.248.0515.49-.1342.49-.3947v-2.9324c0-.1644-.101-.3175-.264-.3723-.65-.2194-1.445-.3267-2.38-.3267-1.827 0-3.245.5215-4.228 1.5851-.98 1.0605-1.461 2.5418-1.461 4.4229v.678c0 .0552-.045.1-.1.1h-2.255c-.221 0-.4.179-.4.4v2.777c0 .2209.179.4.4.4h2.255c.055 0 .1.0447.1.1v10.926c0 .2209.179.4.4.4h3.879c.221 0 .4-.1791.4-.4v-10.926c0-.0553.045-.1.1-.1h2.574c.221 0 .4-.1791.4-.4v-2.777c0-.221-.179-.4-.4-.4h-2.574c-.055 0-.1-.0448-.1-.1v-.562c0-.8109.199-1.3599.56-1.6868z"/><path clip-rule="evenodd" d="m138.676 73.7804.001.0004c1.204.6318 2.602.9452 4.188.9452 1.567 0 2.945-.3135 4.13-.9456 1.186-.6325 2.097-1.5431 2.73-2.7289.651-1.1855.975-2.5642.975-4.1315s-.324-2.946-.975-4.1314c-.633-1.1859-1.544-2.0964-2.73-2.7289-1.185-.6322-2.563-.9457-4.13-.9457-1.586 0-2.984.3134-4.188.9452l-.001.0005c-1.186.6324-2.106 1.5427-2.758 2.728l-.001.0017c-.632 1.1853-.945 2.5637-.945 4.1306 0 1.567.313 2.9453.945 4.1306l.001.0017c.652 1.1853 1.572 2.0956 2.758 2.7281zm6.537-3.7069-.001.002c-.527.6719-1.301 1.0155-2.347 1.0155-1.097 0-1.897-.3474-2.427-1.0229-.536-.6824-.816-1.7233-.816-3.1481 0-1.4143.287-2.4472.836-3.1245l.002-.0015c.546-.6921 1.34-1.045 2.405-1.045 1.045 0 1.818.3522 2.346 1.043l.002.0035c.549.6773.837 1.7102.837 3.1245 0 1.4342-.288 2.4765-.837 3.1535z" fill-rule="evenodd"/><path d="m154.359 74.094c0 .2209.179.4.4.4h13.246c.221 0 .4-.1791.4-.4v-3.183c0-.2209-.179-.4-.4-.4h-8.722c-.055 0-.1-.0447-.1-.1v-16.465c0-.2209-.179-.4-.4-.4h-4.024c-.221 0-.4.1791-.4.4z"/><path d="m171.449 74.094c0 .2209.18.4.4.4h3.879c.221 0 .4-.1791.4-.4v-14.203c0-.2209-.179-.4-.4-.4h-3.879c-.22 0-.4.1791-.4.4z"/><path d="m171.704 52.589c-.22 0-.4.1791-.4.4v3.618c0 .2209.18.4.4.4h4.169c.221 0 .4-.1791.4-.4v-3.618c0-.2209-.179-.4-.4-.4z"/><path d="m189.646 63.5019.004.0051c.353.4238.546 1.1251.546 2.137v8.45c0 .2209.179.4.399.4h3.88c.22 0 .4-.1791.4-.4v-8.653c0-2.0765-.439-3.6619-1.341-4.7296-.906-1.0725-2.259-1.5974-4.029-1.5974-1.086 0-2.069.2372-2.943.7143l-.002.0007c-.647.3614-1.203.8426-1.667 1.4421-.032.0404-.085.0573-.14.0444-.053-.0126-.085-.0474-.09-.0917l-.173-1.3824c-.025-.2002-.195-.3504-.397-.3504h-3.614c-.241 0-.426.2107-.399.448.132 1.1606.198 2.4628.198 3.907v10.248c0 .2209.179.4.4.4h3.878c.221 0 .4-.1791.4-.4v-7.986c0-1.0151.282-1.8066.83-2.3914.547-.5841 1.279-.8806 2.211-.8806.782 0 1.319.2316 1.649.6659z"/><path d="m207.242 66.7842 6.11 7.0478c.225.259.041.662-.302.662h-4.704c-.115 0-.225-.0497-.301-.1363l-4.258-4.8575c-.061-.0694-.175-.0264-.175.0659v4.5279c0 .2209-.179.4-.4.4h-3.879c-.221 0-.4-.1791-.4-.4v-20.844c0-.2209.179-.4.4-.4h3.879c.221 0 .4.1791.4.4v10.9058c0 .0924.114.1354.175.0659l3.997-4.5652c.076-.0868.186-.1365.301-.1365h4.581c.344 0 .528.4069.299.665l-5.722 6.4674c-.033.0375-.033.0939-.001.1318z"/><path clip-rule="evenodd" d="m105.011 38.4741.002.0012c.405.1933.71.5376.911 1.0501l2.577 6.7119c.06.1546.208.2567.374.2567h4.247c.282 0 .475-.2829.373-.5451l-2.361-6.067c-.406-1.0723-1.004-1.8383-1.805-2.2748-.049-.0265-.095-.1044-.096-.212-.002-.1084.042-.1729.083-.192.943-.4359 1.699-1.042 2.263-1.8193.756-1.0147 1.131-2.2262 1.131-3.6268 0-1.9869-.631-3.5313-1.909-4.6097-1.275-1.0756-3.133-1.6013-5.549-1.6013h-8.943c-.2209 0-.4.179-.4.4v20.148c0 .2209.1791.4.4.4h3.966c.221 0 .4-.1791.4-.4v-7.823c0-.0553.045-.1.1-.1h2.679c.642 0 1.159.1041 1.557.3031zm2.327-8.5106.002.0018c.55.3898.836 1.014.836 1.9077 0 .8927-.286 1.528-.837 1.9376-.561.3975-1.47.6094-2.754.6094h-3.868c-.055 0-.1-.0448-.1-.1v-4.894c0-.0553.045-.1.1-.1h3.868c1.284 0 2.192.2216 2.753.6375z" fill-rule="evenodd"/><path clip-rule="evenodd" d="m120.848 39.606c.105 1.2187.449 2.0961 1.01 2.6581.601.5815 1.504.8849 2.737.8849.737 0 1.475-.1228 2.215-.3693.636-.2122 1.23-.5087 1.783-.8897.212-.1463.515-.0661.612.1826l.973 2.4798c.063.1617.016.35-.127.4581-.687.5201-1.525.9341-2.511 1.2445l-.001.0006c-1.039.3134-2.088.4704-3.147.4704-2.502 0-4.486-.6851-5.933-2.0718v-.0007c-1.446-1.4064-2.163-3.314-2.163-5.7045 0-1.5093.304-2.8578.916-4.0419.631-1.2029 1.511-2.1336 2.638-2.7865 1.127-.672 2.401-1.0066 3.817-1.0066 2.105 0 3.782.6901 5.013 2.0802 1.23 1.3683 1.836 3.2151 1.836 5.5228v.388c0 .2209-.179.4-.4.4h-9.171c-.059 0-.101.0485-.097.101zm1.008-4.4339c.49-.4528 1.127-.6841 1.927-.6841.752 0 1.334.205 1.762.6006.43.3973.722 1.0028.863 1.8362.009.0522-.033.1052-.094.1052h-5.252c-.064 0-.104-.0558-.093-.1081.167-.7651.466-1.3441.887-1.7498z" fill-rule="evenodd"/><path d="m135.185 44.652v.0008c1.407 1.3874 3.334 2.0732 5.761 2.0732 1.135 0 2.223-.1567 3.262-.4704l.002-.0008c.969-.3108 1.774-.7259 2.411-1.2486.133-.1089.175-.2889.116-.4439l-.976-2.5623c-.097-.2555-.41-.3351-.623-.1805-.495.3591-1.03.6508-1.606.875-.681.2457-1.34.3675-1.977.3675-1.187 0-2.08-.3474-2.702-1.0238-.624-.6973-.947-1.7285-.947-3.1182 0-1.3706.323-2.3819.946-3.0596.643-.6976 1.537-1.0534 2.703-1.0534.636 0 1.294.1309 1.975.3958l.004.0012c.575.2078 1.11.4898 1.604.8462.213.1535.525.0743.623-.1813l.978-2.5677c.057-.1506.02-.3259-.107-.4358-.603-.5243-1.383-.94-2.334-1.251-1.02-.3336-2.07-.5004-3.149-.5004-1.588 0-2.995.3332-4.219 1.0042-1.204.6516-2.143 1.5806-2.814 2.7843-.672 1.1855-1.005 2.5552-1.005 4.1045 0 2.3697.686 4.2575 2.074 5.645z"/><path clip-rule="evenodd" d="m151.908 45.7743.001.0007c1.012.6351 2.171.951 3.472.951 1.046 0 1.989-.2173 2.825-.6552.54-.2827 1.002-.6371 1.387-1.0636.036-.0404.104-.0579.177-.0348.071.0228.101.0692.101.1126v1.009c0 .2209.18.4.4.4h3.821c.221 0 .4-.1791.4-.4v-14.203c0-.221-.179-.4-.4-.4h-3.821c-.22 0-.4.179-.4.4v.9219c0 .0436-.03.0897-.101.1122-.071.0228-.139.0052-.175-.0352-.384-.4315-.847-.7949-1.386-1.0905-.837-.458-1.78-.6854-2.828-.6854-1.284 0-2.434.3362-3.446 1.0106-1.011.6547-1.802 1.5857-2.373 2.7869l-.001.0019c-.552 1.2019-.826 2.5674-.826 4.0936 0 1.526.274 2.8823.827 4.0654l.001.0027c.571 1.1626 1.352 2.0642 2.345 2.6992zm7.125-9.9239.001.0015c.551.698.837 1.723.837 3.0971 0 1.374-.286 2.399-.837 3.097-.547.6927-1.332 1.045-2.377 1.045-1.065 0-1.87-.3438-2.435-1.0177-.551-.6983-.837-1.7133-.837-3.0663 0-1.3526.296-2.3889.868-3.1272.568-.7324 1.363-1.1018 2.404-1.1018 1.044 0 1.828.3608 2.376 1.0724z" fill-rule="evenodd"/><path d="m168.597 46.094c0 .2209.179.4.4.4h3.879c.221 0 .4-.1791.4-.4v-20.844c0-.2209-.179-.4-.4-.4h-3.879c-.221 0-.4.1791-.4.4z"/><path d="m177.425 46.094c0 .2209.179.4.4.4h3.879c.221 0 .4-.1791.4-.4v-20.844c0-.2209-.179-.4-.4-.4h-3.879c-.221 0-.4.1791-.4.4z"/></g><path d="m59.5379 43.2534c-.2214-.2891-.5671-.4534-.9313-.4534h-25.8066c-.4418 0-.8.3582-.8.8v25.8092c0 .3641.1643.7099.4534.9312 2.5483 1.9506 5.4738 3.4332 8.6482 4.3194.2517.0703.4984-.1209.4984-.3823v-15.0893l14.414 14.414c.3271.3271.8141.4394 1.2453.272 2.7347-1.0614 5.2418-2.5791 7.4277-4.4596.2088-.1797.2174-.4985.0226-.6933l-16.3214-16.3213h15.0865c.2614 0 .4526-.2467.3823-.4984-.8861-3.1744-2.3686-6.0999-4.3191-8.6482z" fill="#3d7dfc"/><path d="m32.6 40.4c-.3314 0-.6012-.2697-.5889-.6008.3159-8.5582 7.3535-15.3992 15.9889-15.3992 8.8366 0 16 7.1635 16 16v4.5846c0 .2089-.285.2806-.3874.0986-.7505-1.3332-1.6068-2.5985-2.5573-3.7843l-.2402-.2996c-.3037-.3788-.7629-.5993-1.2484-.5993z" fill="#ffa805"/><circle cx="48" cy="50" r="30.4" stroke="#3d7dfc" stroke-width="3.2"/></svg>